<?xml version="1.0" standalone="no"?>
<!DOCTYPE svg PUBLIC "-//W3C//DTD SVG 1.1//EN" "http://www.w3.org/Graphics/SVG/1.1/DTD/svg11.dtd" >
<svg xmlns="http://www.w3.org/2000/svg">
<metadata></metadata>
<defs>
<font id="cf_old_photograph_creditRg" horiz-adv-x="333" >
<font-face units-per-em="1000" ascent="945" descent="-55" />
<missing-glyph horiz-adv-x="250" />
<glyph horiz-adv-x="0" />
<glyph horiz-adv-x="0" />
<glyph unicode=" "  horiz-adv-x="250" />
<glyph unicode="&#x09;" horiz-adv-x="250" />
<glyph unicode="&#xa0;" horiz-adv-x="250" />
<glyph unicode="!" horiz-adv-x="2615" d="M2449 -5h-860v9h856q0 -1 1 -3t1 -3.5t2 -2.5zM2528 331q0 -8 -5.5 -16.5t-13.5 -15.5t-17 -11.5t-15 -4.5q-17 0 -27.5 10.5t-10.5 24.5t11 21t16 7t11.5 -5t8.5 -10q0 -2 -3 -7t-5 -7h-12q0 5 3 8t1 8h-9q-9 -9 -9 -25l12 -10t12 -5q5 0 10.5 3.5t10.5 4.5q6 3 12 14 t6 18q0 22 -15.5 33.5t-35.5 16t-38.5 3.5t-24.5 -2l-4 7q2 2 6.5 5t11.5 3q11 0 30 -2.5t37.5 -9.5t32 -20.5t13.5 -35.5zM2383 383q-1 -1 -3 -2q-4 -2 -6 -2q0 1 -1 3t-1.5 2.5t-1.5 2.5q1 1 3 2t3 2t3 1q1 -1 2 -3q2 -4 2 -6zM2363 376h-12v12q2 0 7 -3.5t5 -8.5z M2337 377q-2 -2 -3.5 0.5t-1.5 4.5zM2271 475q0 -29 -13 -46t-32 -27t-39 -13t-33 -3q-5 0 -25 1t-36 -1v11q0 6 3.5 7t5.5 3q0 12 1 28t1.5 30.5t1 25t0.5 13.5q0 13 -1 27t-15 25q17 0 31 2t20 2q15 0 34.5 -1.5t38.5 -8.5t33.5 -21t17.5 -39q1 -2 3.5 -5.5t2.5 -9.5z M2324 366q-20 -5 -42.5 -12.5t-47 -16.5t-49.5 -19t-49 -18l-7 5l186 74q3 0 6 -5t3 -8zM2331 298q0 -9 -7.5 -20t-20.5 -11q-6 0 -13 4.5t-9 9.5q0 8 2 12t2 6q2 0 6.5 2t12.5 2q0 -3 1.5 -7t1.5 -12h-5.5t-5.5 3q-1 0 -1 -1q-1 -1 -1 -4q2 -2 4 -2.5t5 -2.5q5 2 9 6l9 9 q-1 10 -6 15.5t-11.5 8.5t-13.5 3.5t-11 0.5q-30 0 -61.5 -12t-73.5 -25q-1 0 -3 1q-4 2 -5 4q6 5 16 9.5t18 7.5q13 5 31 10t34 9t28.5 6.5t15.5 2.5q4 0 12.5 -2.5t17.5 -7t15.5 -11t6.5 -14.5zM2449 88q-3 -9 -7.5 -14.5t-11.5 -13.5q0 -8 -2 -17t-7 -14l-3.5 14t-4 12 t-6 13t-10.5 17h12q2 -2 4.5 -6.5t7.5 -9.5q8 5 14 9.5t14 9.5zM2027 509q0 -11 -1.5 -17.5t-6 -11.5t-12.5 -9.5t-20 -11.5q15 -34 40 -71q-20 3 -42 -2q0 2 3 7.5t3 10.5q0 3 -3.5 9t-8.5 13.5t-11 16t-12 14.5q-7 -2 -18 -0.5t-37 1.5q-9 -16 -8.5 -32.5t8.5 -39.5h-35 q8 23 8.5 52t0.5 51v21.5t-1 28.5q-2 4 -5 8.5t-5 12.5q23 -3 37 -3t24.5 1t19.5 1t23 -4q7 3 17.5 0.5t19.5 -9t15.5 -16.5t6.5 -21zM2357 37l-9 -8q-2 8 -8 16.5t-11 16.5q-2 -3 -2 -10v-15q-2 -2 -6 -3t-6 -1q0 10 -1.5 23.5t1.5 28.5h15q0 -1 1 -5t3 -8.5t5 -7.5t8 -3 q-5 9 -3 20q2 2 6 3t7 1v-48zM2304 59q0 -9 -7.5 -19.5t-18.5 -10.5q-7 0 -11.5 4.5t-7 10t-3.5 10t-1 5.5q0 7 5 18.5t19 11.5q16 0 20.5 -11t4.5 -19zM2291 50q-3 -2 -8.5 -4.5t-10.5 -2.5q0 2 -2.5 6.5t-4.5 7.5q-1 2 2 7.5t8 10.5h12h2q2 -2 2 -6v-19zM2142 257 q0 -20 -12 -33t-25 -13q-14 0 -24.5 7.5t-10.5 21.5q0 6 8 13t15 7q4 0 10.5 -5t9.5 -13l-12 -11q-5 2 -6.5 8t-9.5 8l-2 -2v-6t3.5 -10t5.5 -9h19q13 13 15.5 18t2.5 16q0 20 -12.5 31t-29 15.5t-32 5t-21.5 0.5q-5 0 -16 -5t-22 -7q-12 -2 -28.5 -8.5t-35 -14t-37 -16 t-32.5 -15.5q-1 1 -2 3q-2 4 -2 7q13 6 35.5 17t49 22t54 19t50.5 8q5 0 17 -2t25.5 -6.5t25 -10.5t15.5 -15q2 -5 6.5 -12t4.5 -13zM2199 51q1 -7 -2 -11.5t-7 -6.5t-8.5 -3t-7.5 -1q-6 0 -11 2t-10 2v12h30q-1 7 -3 9t-5.5 2.5t-9 1t-12.5 5.5v18q2 2 8.5 3.5l19.5 4.5 q2 -3 4.5 -5t2.5 -5q-8 -2 -11.5 -1t-5.5 1q-6 -6 -6 -8q4 -4 9.5 -5t10 -1.5t8.5 -3t6 -10.5zM2142 51q0 -6 -1.5 -9.5t-1.5 -8.5h-35q-2 2 -3 6t-1 6q2 0 7.5 -1.5t12.5 -1.5q6 6 6 8q-4 4 -9 5.5t-9.5 3.5t-8 6t-3.5 13q11 11 23 11q7 0 10 -3.5t3 -5.5q-2 -3 -8 -3.5 t-11 -5.5q8 -5 13.5 -5.5t8.5 -0.5q2 -2 4.5 -5t2.5 -9zM1819 394q0 -1 -1 -3q-2 -4 -3 -5q-7 2 -19 2.5t-20 5.5q3 2 4 5t3 5q-7 14 -13 25t-16 21q-15 2 -34.5 3.5t-25.5 1.5t-14.5 -2t-16.5 -2q-3 -5 -9 -13.5t-10.5 -17.5t-6 -17.5t3.5 -12.5h-46q2 5 8 10.5t11 7.5 q31 63 77 134q-3 5 -6.5 9t-3.5 9q20 -2 34 -1t25 1q0 -5 -1.5 -9.5t-1.5 -9.5q0 -3 8.5 -19.5t21.5 -39t27 -46.5t25 -42zM1742 382q-5 3 -5 8t2 5q2 -2 3.5 -5t-0.5 -8zM2086 30h-38q-8 6 -8 16q0 6 1.5 19t-0.5 23h35q6 -6 6 -11q-5 2 -11.5 0.5t-11.5 1.5q-6 -6 -6 -8 q2 -2 6.5 -0.5t9.5 1.5q2 -2 2 -8t-2 -8q-5 0 -9 1.5t-7 -0.5v-12q8 -2 16.5 -2.5t16.5 -0.5v-12zM1681 611q-9 -14 -15.5 -22.5t-19.5 -8.5t-27 14q-5 0 -8 -3q-1 -2 -12 -20t-26.5 -39.5t-33 -39t-32.5 -17.5q-5 0 -9.5 -2t-10.5 -2h-20q-1 1 -2 3q-2 4 -2 7q5 -1 11 -0.5 t13 0.5q22 0 40.5 15.5t34 36t29 41.5t25.5 33q5 -5 12.5 -11t14.5 -6q10 0 15 4.5t8 10.5t5 12t5 9zM2027 78q2 -10 -9 -21q-1 -5 -0.5 -10.5t-1.5 -13.5q-5 5 -8.5 10t-6.5 10q-2 0 -5.5 1.5t-5.5 1.5q-2 -5 -4 -11.5t-7 -11.5q-3 12 -2 27.5t1 27.5q10 -1 24 0t25 -10z M1413 638q-2 -2 -3.5 0t-1.5 5zM2096 283l-4 -7q-22 -10 -51 -19.5t-61 -18.5t-64 -16t-59 -12q-2 -4 -2.5 -11t-4.5 -10q-3 -3 -6 -7.5t-7 -8.5q-2 -1 -3 -1h-5q5 10 11 24.5t6 20.5q0 9 -5 20t-12.5 20.5t-16.5 16t-18 6.5q-5 0 -13 -5.5t-18 -13.5q-1 0 -1 -1q0 -2 3 -3 q3 3 15 3q15 0 27 -14.5t12 -26.5q0 -14 -11 -26t-22 -12q-14 0 -23.5 11t-9.5 19q0 5 6.5 11.5l11.5 11.5q2 0 7.5 -2.5t10.5 -5.5l-3 -15h-13q0 3 0.5 5t-3.5 5q-4 -3 -4.5 -5t-2.5 -4q5 -12 10.5 -15t9.5 -3q17 0 20 9.5t3 17.5q0 17 -9 23t-21 6q-17 0 -30 -13.5 t-13 -24.5q0 -5 2 -11t2 -11q5 -8 12.5 -16.5t13.5 -8.5l9 2q0 -2 2 -5.5t2 -6.5q-7 -1 -16 2.5t-16.5 10t-12.5 14t-4 13.5q-20 2 -41 2t-41 -3l-6 7q-21 -1 -47 2.5t-51.5 9t-47.5 11t-36 7.5q-2 2 -3 7.5t6 5.5q6 0 4 -2t4 -2q16 0 45 7.5t60 17t57.5 18t37.5 10.5 q2 8 0.5 21t-0.5 24q1 9 5 15.5t9 12t11 10t10 9.5q0 -1 1 -3q0 -2 0.5 -3t-1.5 -3q-3 -6 -8 -10.5t-9.5 -9.5t-8 -11.5t-3.5 -16.5q0 -6 3.5 -14.5t8.5 -13.5q33 4 55 3l6 6v8l-9 9t-9 7l-5 -5q0 -1 2 -7t0 -11q-2 0 -7.5 2.5t-8.5 4.5q3 15 8.5 18.5t13.5 3.5 q14 0 18 -7.5t6 -25.5q8 -3 14 -5t14 -5q2 8 5.5 17t3.5 15q0 14 -7 26.5t-22 22.5q-2 2 -4.5 5.5t-2.5 5.5q18 -3 28 -13.5t14 -24t3 -28t-6 -24.5q8 -8 21.5 -18t23.5 -20q10 3 21 8.5t20.5 13.5t16 18t6.5 23q0 5 -5 8t-10 8q-2 -2 -5.5 -2.5t-6.5 -2.5v-4.5t2 -3.5 q3 2 5.5 4.5t5.5 2.5q2 -3 4.5 -6.5t2.5 -5.5l-7 -8h-15q-2 2 -5 7t-6 7q2 6 7.5 11.5l10.5 10.5q18 2 23.5 -10t5.5 -24q0 -13 -5.5 -22.5t-14.5 -17t-20.5 -13.5t-22.5 -11q2 -8 4.5 -15.5t7.5 -15.5q57 15 116 30t119 33zM1506 532l-16 -14q1 5 2 17t-6 17q1 1 3 2t3 2 t3 1q2 -2 5 -7t6 -7v-11zM1570 511q1 -3 -1.5 -9t-6.5 -13t-9 -12.5t-8 -8.5q5 -4 11.5 -7t11.5 -5q-5 0 -12.5 2.5t-13.5 2.5q-5 0 -10 -2.5t-10 -2.5q11 12 24.5 27t23.5 28zM1396 627h-9v12h9v-12zM1964 57q0 -14 -10.5 -21t-18.5 -7q-7 0 -10.5 2t-6.5 2v48l8 8h13 q7 0 12 -4.5t8 -10t4 -11t1 -6.5zM1380 624q-2 0 -7.5 -2t-8.5 -2q0 7 11 13q2 0 3.5 -3.5t1.5 -5.5zM1826 166q-3 -2 -5 -5t-4 -3l-4 13q6 0 13 -5zM1512 450q-2 -3 -3.5 -0.5t-1.5 5.5zM1908 59q0 -8 -1 -11.5t-4 -6t-8.5 -5t-13.5 -7.5q-8 0 -12 2t-6 2v55h23q6 0 10 -4 t6.5 -9.5t4 -10t1.5 -5.5zM1351 569q-3 -3 -4.5 -0.5t-1.5 4.5zM1357 619q-8 -10 -17.5 -20t-17.5 -21q-6 -8 -11.5 -21t-10.5 -23q-1 0 -3 1q-4 2 -6 4q12 29 27 47.5t39 32.5zM1347 548h-12v12h12v-12zM1851 33q-5 3 -13.5 8t-16.5 8q-5 -5 -6.5 -10t-6.5 -10q-1 1 -3 2 q-4 2 -5 2q2 13 8.5 28t14.5 27h12q6 -13 10 -25.5t6 -29.5zM1203 686l-10 -5v5l8 4zM1328 556l-3 -3l-5 5l4 3zM1660 623q-2 1 -7.5 -1.5t-10.5 -4.5q-5 5 -6 10t-1 10q-3 3 -3.5 3h-6.5q-9 0 -17 -6.5t-14.5 -15.5t-11.5 -18.5t-8 -15.5q-4 -7 -10 -15.5t-12 -14.5 q0 -3 -1 -6q-1 -2 -1.5 -5t-2.5 -5q-12 -19 -36 -33t-42 -14q-17 0 -30.5 11t-20.5 35l-6 -6t-10 -4q-9 0 -14.5 4.5t-8.5 10t-4 11.5t-1 9q0 10 3.5 17t8 12.5t9.5 10.5t9 12q-7 1 -13 -3t-12 -9.5t-11.5 -11t-11.5 -6.5q7 13 21 22.5t30.5 16t32 10t25.5 3.5q6 0 13.5 -5 t14.5 -12.5t11.5 -15t4.5 -13.5t-1.5 -6.5t-3.5 -3.5q-9 24 -18.5 30t-29.5 6q-11 0 -27.5 -4.5t-25.5 -12.5q-8 -8 -13.5 -19.5t-5.5 -17.5q0 -21 20 -21q8 0 9.5 2.5t9.5 11.5q-2 3 -3.5 6t-3.5 3q-3 -2 -3 -6.5v-6.5l-16 3v16q3 0 8 2.5t10 4.5l10 -6t7 -8q5 0 9.5 4 t9.5 7q12 -3 18.5 -12.5t6.5 -14.5q0 -8 -7.5 -15.5t-13.5 -7.5q-7 0 -11.5 2t-7.5 -1q5 -17 15 -19t20 -2q15 0 25.5 6.5t17 16t9.5 20.5t3 20q0 24 -8.5 41.5t-23 28.5t-32.5 16.5t-37 5.5q-49 0 -80.5 -19.5t-50 -49t-25.5 -65t-7 -67.5q0 -22 5 -47.5t19 -48.5t39 -40.5 t64 -23.5q3 -2 3.5 -3.5t6.5 -1.5h30q13 0 28.5 3t29.5 11t25 23.5t14 41.5q8 -2 18.5 -7t20.5 -10q-7 -19 -22.5 -33t-35 -23.5t-40 -14t-37.5 -4.5q-42 0 -73 11.5t-54.5 29.5t-40 38t-29 38t-22.5 29.5t-20 11.5q-8 0 -18 -5.5t-10 -13.5q0 -5 1.5 -9t1.5 -12q2 0 4 -1.5 t10 -1.5q3 2 1.5 7t-1.5 10l19 -4v-12q-3 -2 -8 -6.5t-10 -7.5l-4.5 2t-10 5.5t-9.5 9t-4 11.5q0 18 7 25.5t16 12t16 9.5t7 19t-8 21t-17 12.5t-17 11t-8 16.5q0 5 6.5 13.5t11.5 13.5h18l7 -8l-4 -15h-11q-2 2 -3 6t-3 7q-2 -3 -4 -6.5t-4 -5.5q2 -9 5 -13t6 -5t6.5 -0.5 t5.5 0.5q5 0 9 -0.5t8 4.5q14 16 35 41t41 46q20 20 45 31t51 22q8 3 23.5 4t21.5 1q12 0 29 -3t34.5 -10t33.5 -19t27 -31l5 5q-2 8 -5 16.5t-8 20.5q6 2 18 1t24 -1q-3 -8 -8 -19t-5 -18q0 -6 -0.5 -6t2.5 -2q11 14 18 23t13.5 14t13.5 7t18 2q7 0 15 -2t15 -16v-12z M1499 383l-11 -11t-12 -6q-7 0 -12.5 4.5t-9.5 10t-6 11t-2 7.5q0 3 3 10t8 13.5t11 11t13 3.5q-11 -11 -18 -20.5t-7 -17.5q0 -5 6 -13t9 -10q5 2 9.5 2.5t9.5 2.5q0 3 0.5 7t-6.5 4q-6 0 -7 -1.5t-4 -1.5v12q1 0 2 1t2 1t3 2q3 1 8.5 -2.5t10.5 -8.5v-11zM1241 642 q0 -2 -1 -6t-3 -6q-2 2 -5 6t-3 6h12zM1185 680q-2 0 -6 1t-6 3q1 1 3 2t2.5 2t2.5 1t3 -3.5t1 -5.5zM1225 672q0 -7 -3 -20t-11 -15h-18q0 2 -4 7.5t-6 10.5l7 7h12q2 -5 -1 -8t-5 -6q14 0 16.5 7t-3.5 23q2 0 8 -2t8 -4zM1440 460q0 -20 -17.5 -30.5t-32.5 -10.5 q-12 0 -24 8t-21 19t-14.5 22.5t-5.5 18.5v37q3 -1 5 -3l5 -5q-1 -3 -1 -7.5t-1 -9.5q9 -32 20.5 -51.5t40.5 -19.5q16 0 24.5 9.5t8.5 17.5t-16 20q-2 1 -5.5 -3t-5.5 -9q2 -2 6.5 -0.5t6.5 1.5l-4 -15q-7 0 -11.5 1.5t-6.5 1.5v22q5 2 11 6.5t11 4.5q9 0 18 -10.5t9 -14.5 zM1317 540q-1 -8 -1 -16t-11 -16v21q0 6 5 8.5t7 2.5zM1298 524q0 -3 -3.5 -8t-5.5 -5q-2 2 -3 6t-1 7h13zM1259 626q-7 -16 -23.5 -29.5t-31.5 -13.5h-18q-12 0 -20.5 8t-16 17t-16.5 17t-23 8q-6 0 -13 -6t-11 -14q2 8 9 19t20 11q5 0 11.5 -2.5t11.5 -7.5q4 11 9 28.5 t22 23.5q-3 -8 -11.5 -21t-8.5 -28q0 -5 3 -13.5t8 -13.5q5 -6 16.5 -12.5t17.5 -6.5q7 0 16.5 4t18.5 9.5t17 11.5t13 11zM1314 501q0 -3 -4 -7t-9 -1q3 2 7 5t6 3zM1628 301l-8 -8l-25 4v15h13q0 -2 -0.5 -4.5t2.5 -4.5q2 2 4 2.5t4 2.5q-4 11 -9 13t-8 2q-8 0 -14 -4.5 t-12 -10.5t-12.5 -13t-14.5 -11q-33 -18 -55 -26t-50 -8q-6 0 -18.5 1.5t-25 4t-23 6t-12.5 7.5q9 -1 20.5 -2.5t22.5 -3t19.5 -2.5t11.5 -1q40 0 64.5 11.5t40.5 25t28 25t29 11.5q6 0 16 -2t12 -13v-17zM1311 476q-2 -2 -3.5 0.5t-1.5 4.5zM1294 500q0 -2 -5 -3.5t-7 3.5 h12zM1743 74q0 -7 -10 -17q4 -5 5.5 -12t0.5 -12q-5 2 -10.5 8.5t-10.5 14.5h-9q-2 -5 -4 -11.5t-7 -11.5l-4 59q14 -3 29.5 -4t19.5 -14zM1450 374q0 -9 -5.5 -15.5t-12.5 -11t-15 -6.5t-12 -2q-12 0 -27 7.5t-29 20.5t-25 31.5t-15 39.5q11 -8 16 -22.5t13 -23.5 q20 -23 36 -33t33 -10q14 0 25 10t8 17q-2 3 -2.5 5t-3.5 5l-14 -3q2 -5 6 -6.5t4 -6.5q-5 -4 -12 -4l-8 7v15q3 3 6.5 5t11.5 2q12 0 17 -7t5 -14zM1295 463q-3 -2 -7 -3t-6 -1q0 2 1.5 7t3.5 5zM1687 61q0 -5 -4.5 -12.5t-9.5 -14.5q-2 -1 -5 -3t-9 -2q-7 0 -11 4.5 t-6.5 10t-3 11t-0.5 7.5q0 8 4.5 19t18.5 11q4 0 8.5 -4t8.5 -9.5t6.5 -10.5t2.5 -7zM1126 601q-2 -5 -9 -9.5t-14 -4.5q-6 0 -12.5 3t-6.5 9v10q3 1 6.5 -3t8.5 -9l12 3l1 1q0 1 0.5 1t0.5 2q-2 3 -6 3h-7q0 2 2.5 8t5.5 8q2 0 7.5 -3t10.5 -8v-11zM1351 317 q-10 -2 -21 9.5t-18 20.5q-5 7 -10.5 18.5t-10 22.5t-7 20.5t-2.5 12.5v24q12 -8 11.5 -19t1.5 -22q10 -15 21.5 -40t34.5 -47zM1149 557q-2 -5 -6 -10.5t-9 -5.5q0 1 -1 3t-1.5 2.5t-1.5 2.5q2 2 8 3.5t11 4.5zM1634 79q-5 0 -12 -1.5t-12 1.5q-2 -3 -3.5 -4t-1.5 -4 q4 -2 10.5 -2.5t11.5 0.5q1 -1 2 -3q2 -4 2 -6q-5 -3 -10.5 -3.5t-10.5 -0.5q-5 -5 -6.5 -11.5t-5.5 -11.5q-2 12 -3.5 27.5t0.5 27.5q8 0 17.5 1t17.5 3q2 -2 3 -6t1 -7zM1176 576q-13 -1 -15 0t-8 1q-11 0 -16.5 -6t-8 -13.5t-2.5 -13.5v-7q0 -26 11 -35.5t37 -18.5v-3 q0 -2 0.5 -3t0.5 -2h-10q-9 0 -18.5 7t-17 17t-12 20.5t-4.5 17.5q0 6 3 15t8.5 16.5t13.5 13t18 5.5q6 0 10.5 -3.5t9.5 -7.5zM1162 502q-1 -1 -3 -2q-4 -2 -6 -2l-2 4q-1 2 -1 8q2 0 7 -3t5 -5zM1427 229q-7 -17 -14.5 -19.5t-15.5 -2.5q-28 0 -52 40q3 -2 9.5 -7t14 -10 t15 -9t12.5 -4h9q2 3 4 7.5t5 4.5l-6 5q-2 -2 -3.5 -6t-6.5 -4l-8 8q3 3 6 7.5l5 7.5q2 1 13 -4t13 -14zM1324 282q-2 -3 -3.5 -0.5t-1.5 4.5zM1327 266q0 -2 -3 -5.5t-5 -3.5q-1 1 -2 3q-2 4 -2 6h12zM1331 246q0 -2 -5 -5t-8 -3q0 2 1.5 7t3.5 5q1 0 3 -1t2.5 -1.5 t2.5 -1.5zM1173 373q-3 -4 -4.5 -5.5t-7.5 -1.5q-9 0 -15 5t-9.5 12t-5 13.5t-1.5 8.5q0 6 2 15t10 11q0 -6 -1 -16.5t-1 -20.5q7 -14 14.5 -15.5t18.5 -5.5zM1327 185h-12v9h12v-9zM1361 206q0 -5 -4 -13t-10 -17.5t-13 -19.5t-13 -18q-8 14 -21 29.5t-21 35.5q2 5 4 9t0 9 q-13 -12 -18 -14.5t-18 -2.5q-1 0 -5 0.5t-8 2t-7.5 4.5t-4.5 8v11q3 2 6 3.5t5 3.5h15q-1 -1 0 -2q0 -3 4 -5q0 -3 -2.5 -8t-7.5 -7l6 -4q11 0 23.5 13t25.5 19q0 -2 -1.5 -6.5t-1.5 -9.5q2 0 5.5 1.5t13.5 1.5q3 -2 4.5 -5t3.5 -5q0 -3 -3 -8t-5 -7h-3q-5 0 -9 3q0 2 4 4 t6 4v1l-2 4q-7 1 -10.5 -1t-5 -6t-2 -8t-0.5 -5q0 -6 10.5 -19.5t19.5 -23.5q10 12 20 22t10 16v19q-2 2 -7 2.5t-5 3.5l-5 -6q2 -2 6 -4t4 -7h-12l-1 2q-1 1 -1.5 2.5t-1.5 3.5t2 7.5t8 10.5q13 2 18 -8t5 -16zM1182 277q-2 -2 -4 -4.5t-9 -2.5q-5 0 -9 2.5t-9 2.5 q-11 1 -25 5.5t-26.5 12t-21 19t-8.5 26.5q0 4 4 14t18 10q6 0 11 -6.5t7 -11.5l-8 -8h-11q-3 5 0 8.5t3 8.5q-3 1 -6 -1.5t-8 -7.5v-13q0 -6 6 -12.5t13.5 -12.5t14 -10.5t8.5 -4.5q14 -4 30 -8t30 -6zM1303 289q-9 -12 -29.5 -23.5t-44 -21t-46 -15t-37.5 -5.5 q-12 0 -15 10q-26 -7 -44.5 -10.5t-35 -5t-34 -1.5h-39.5q-9 0 -15.5 -1t-13 -1t-14.5 1.5t-20 5.5q2 2 8.5 2t28.5 2q-10 5 -20.5 8t-22 7.5t-24 12.5t-25.5 23q-7 -2 -16.5 -8.5t-20.5 -14.5v12q7 5 15 11.5t15 11.5q-5 12 -9.5 29.5t-4.5 24.5q0 5 7 20.5t17 28.5h12 q0 -3 -0.5 -6.5t-2.5 -4.5q-9 -7 -13 -11.5t-5.5 -9t-1 -10t0.5 -12.5t2 -19.5t4 -22.5q2 -3 4 -3.5t5 -2.5q8 5 22 5.5t20 0.5q30 0 53 -7.5t44.5 -17t43.5 -17t49 -7.5h15.5t21.5 3q0 5 -1.5 6t-7.5 1q-5 0 -8.5 -1.5t-9.5 -1.5q-9 0 -25 4t-32 12t-27.5 20t-11.5 28 q0 5 4 15t17 12q-1 -5 -6 -11.5t-5 -12.5q0 -19 14 -31t32 -18.5t35.5 -9t24.5 -2.5q5 0 13 3.5t15 3.5q6 0 7 -4t3 -6q17 8 35 16t36 17q-7 4 -15.5 2t-14.5 -2q-24 0 -44 9.5t-33.5 24.5t-21 33t-7.5 35q0 31 13.5 54t48.5 25q1 -1 2 -3q2 -4 2 -6q-19 -1 -30 -8t-17 -17 t-7.5 -21t-1.5 -19q0 -35 20 -60t54 -34q0 -1 1 -1t4 3q-12 10 -16.5 25t-2.5 32q5 5 11.5 9.5t14.5 4.5q7 0 14 -5t9 -10q0 -8 -2 -12t-2 -6q-2 0 -7 -2t-8 -2q-2 3 -6 6.5t-4 6.5l8 7l4 -4t7 0q0 2 -3 5.5t-6 5.5h-8q-5 -5 -9 -12t-4 -13q0 -13 8 -20.5t18 -11.5t20 -5 t14 -1q5 0 16.5 0.5t19.5 -1.5q-15 -7 -33 -16l-37 -18.5t-37.5 -18t-34.5 -14.5q6 -3 13.5 -2t15 3.5t14 5t10.5 2.5q13 0 28.5 5t31 12t29.5 15t25 13zM991 531q-13 5 -32.5 7.5t-25.5 2.5h-6q-1 -1 -3 -2t-5 -4q1 -17 0 -36.5l-2 -39t1 -37.5t10 -32l-39 3q7 13 8.5 36.5 t1.5 40.5q0 3 -1 10.5t-1.5 17t-1 19.5t0.5 18q-9 5 -21 5.5t-19 0.5q-12 0 -30 -10q-2 5 1 13t3 16q36 1 60 1.5t40.5 0.5h27t19.5 2q9 -6 14 -18v-15zM1063 335q0 -10 -10 -22q-2 0 -7.5 3t-8.5 8q0 3 5 3.5t10 -1.5q2 2 2 4.5v5.5q0 1 2 1q4 0 7 -2zM965 390 q-3 -2 -4.5 0.5t-1.5 4.5zM951 400q-1 -1 -3 -2q-4 -2 -6 -2l-2 4q-1 2 -1 8q2 0 7 -3t5 -5zM971 374q-2 -2 -3.5 0.5t-1.5 4.5zM974 346h-9v13h9v-13zM961 328q-7 -5 -17.5 -10t-16.5 -5q-15 0 -26.5 9t-11.5 24q0 12 7.5 19t15.5 7q6 0 11.5 -4.5t8.5 -9.5q0 -2 -3.5 -7.5 t-8.5 -7.5q-2 0 -3 1q-4 2 -5 2q0 3 1.5 7.5t-0.5 9.5q-5 -2 -9.5 -7t-4.5 -12q0 -8 5.5 -12.5t13 -6.5t14 -2h8.5q5 0 8.5 3.5t8.5 5.5zM810 447q0 -15 -6.5 -26t-17 -18t-23 -10.5t-24.5 -3.5q-3 0 -13 0.5t-22.5 1.5t-26.5 1.5t-25 0.5q1 5 -3.5 12.5t-6.5 15.5 q8 -2 18 -5.5t16 -3.5h51q8 0 18 1.5t18.5 5t14 10.5t5.5 19q0 15 -10.5 21t-26.5 7.5t-34 1t-34 2t-26.5 11t-10.5 27.5q0 11 6.5 19t15.5 13t20 7.5t20 2.5h73q2 -5 6.5 -13t6.5 -16q-12 5 -29.5 7.5t-24.5 2.5q-5 0 -16 -0.5t-22.5 -2.5t-20 -7t-8.5 -15 q0 -12 10.5 -15.5t26.5 -4t34 0t34 -3.5t26.5 -14t10.5 -32zM892 239q-2 -2 -6 -5t-6 -3q-2 2 -3 6t-1 6zM876 209l-6 -4t-5 -4q-3 -1 -8.5 2.5t-10.5 8.5v13q0 5 7.5 11t15.5 4q0 -3 -4 -8t-6 -7q0 -5 6 -8t11 -8zM1027 37l-35 -4q-7 10 -7 21q0 6 2 16.5t5 21.5h25 q2 -2 4.5 -5t2.5 -8h-20q-1 0 -2 -1t-1 -4l5 -5q3 3 11 3q1 -1 2 -3q2 -4 2 -6q-3 -2 -7 -2.5t-7.5 -1t-6 -2t-2.5 -5.5q7 -5 15.5 -7.5t13.5 -7.5zM978 40q-5 -2 -9.5 -4.5t-10.5 -2.5q-14 0 -18.5 10.5t-4.5 15.5q0 3 1 8.5t3.5 11t6.5 9.5t11 4q6 0 9 -2.5t8 -4.5v-12 q-4 0 -12 6q-5 0 -8 -3.5t-3 -8.5q-5 -9 -3 -12.5t6 -8.5q8 0 13 3t7 3zM602 481q0 -22 -9.5 -39t-24.5 -29t-33 -18t-34 -6q-18 0 -32.5 7.5t-25.5 19.5t-17 27t-6 30t6.5 31t18 29.5t28 22t36.5 8.5q19 0 36 -7t29.5 -18.5t20 -26.5t7.5 -31zM925 43q-2 -2 -4 -5t-4 -5 q-7 8 -11 16t-11 13q0 -7 -2.5 -15.5t-4.5 -10.5q-2 0 -5.5 4.5t-3.5 10.5q0 5 2 16t4 20l6 2q5 -2 9.5 -8.5t6.5 -11.5q5 5 5 11.5t5 11.5q2 -2 4 -7t4 -7v-35zM865 33h-38q-3 12 -3 28t3 30h35v-12h-20q-1 0 -2 -1t-1 -3q5 -3 11.5 -5t8.5 -7q-7 -4 -11 -4t-12 -8 q8 -10 14.5 -7t14.5 1v-12zM912 202q0 -6 -5 -12.5t-12 -12t-14 -9t-10 -3.5q-24 0 -41.5 17.5t-20.5 41.5q-95 22 -170 46t-151 55q-12 0 -30 2.5t-34.5 5t-29 4.5t-15.5 2q-6 0 -11 -1t-20 -1q0 2 1 6t3 6q25 -2 52 -5.5t56 -8.5q-16 9 -37 17.5t-44.5 16.5t-47 15 t-43.5 14l-3 7h15l228 -85q3 -1 6.5 1.5t5.5 6.5q8 1 18.5 3t16.5 2q3 0 12 -1.5t20 -4t22 -5.5t20 -6q3 4 2 8.5t-1.5 9t0.5 9t9 9.5h18l7 -7l-4 -15h-12q1 2 2 6.5t-1 9.5q-11 -4 -11 -15q0 -12 20.5 -23t47.5 -20.5t53 -17.5t37 -15q-15 -1 -40.5 8t-56.5 20t-63 22 t-59 15l-61 -2q67 -31 139 -51t144 -30q2 -30 15 -44.5t32 -14.5q14 0 24 11t15 25q2 -2 4.5 -3.5t2.5 -8.5zM816 66q0 -9 -7 -18t-14 -15l-23 3v56h19q8 0 16.5 -10.5t8.5 -15.5zM573 269l-4 -9l-5 2l5 8zM565 282q-1 -1 -1 -3q-2 -5 -3 -5q-2 0 -6.5 3t-10.5 3l-4 -1 t-8 -3t-5.5 -6t1.5 -10q3 0 5.5 3.5t4.5 3.5q2 -3 5 -6.5t3 -5.5l-8 -8h-11l-11 11v10q0 9 10.5 15.5t15.5 6.5q7 0 12.5 -3t10.5 -5zM397 541v-11.5t-1 -10.5q0 -8 -9 -15.5t-21 -14t-23 -10.5t-15 -4h-54q-2 -3 -2.5 -5t-2.5 -4q2 -8 1 -19.5t-1 -18.5q0 -20 1 -37.5 t11 -22.5v-9q-10 1 -22.5 1h-22.5q0 2 4 7.5t9 10.5v210l-9 9t-4 9q19 -1 47 0t53 -3.5t43 -18t18 -43.5zM757 56q0 -5 -3.5 -13t-8.5 -10q-5 7 -10 16.5t-10 19.5h-1q-1 0 -3 -2q2 -3 2.5 -11t0.5 -16q-5 -4 -13 -4v52l15 4q3 -5 5.5 -12t7.5 -14q2 5 3 11.5t3 14.5 q5 -8 8.5 -19t3.5 -17zM575 241q-14 -20 -24 -23.5t-22 -3.5q-26 0 -37.5 17t-11.5 34q0 3 1.5 9t4 12.5t6.5 12t9 7.5q-4 -10 -6 -21.5t-2 -17.5q0 -20 9.5 -31.5t26.5 -11.5t26 9t11 24q2 1 4 1q5 0 5 -4v-13zM701 61q0 -3 -1.5 -12.5t-13.5 -15.5h-10q-6 0 -13.5 10 t-7.5 16q0 11 6 22t17 11q7 0 12 -4t7 -9.5t3 -10.5t1 -7zM651 66q-16 -13 -31 -10q-5 -5 -5.5 -11.5t-2.5 -11.5q-4 2 -7 7.5t-3 10.5q0 6 1.5 18t-0.5 23h34q5 -5 9.5 -13t4.5 -13zM335 338q-3 -3 -4.5 -0.5t-1.5 5.5zM324 330h-12l8 9q1 -1 2 -3q2 -4 2 -6zM595 43 q-5 -3 -12.5 -6.5t-13.5 -3.5t-10.5 2.5t-9.5 4.5q0 2 1 6t3 6q3 0 8 -2t7 -4q2 0 5.5 1.5t5.5 6.5q-8 5 -15 8.5t-12 11.5q4 10 10.5 14t9.5 4q6 0 8.5 -1t4.5 -3q1 -2 1 -4q0 -5 -2 -8q-1 0 -3 1q-4 2 -10 2l-5 -5q7 -2 14 -5t15 -11v-15zM238 406q-12 0 -24.5 -1 t-25.5 -6h-11v7q9 2 22.5 5.5t18.5 3.5h17q0 -1 1 -3q2 -4 2 -6zM358 287q0 -9 -4 -15.5t-10 -10t-12.5 -5.5t-10.5 -2q-11 0 -18 5t-12 12t-7 14t-2 11q0 8 3.5 17.5t14.5 15.5q3 -5 -2.5 -14t-5.5 -17q0 -14 9 -24.5t20 -10.5q13 0 20.5 10t6.5 18l-8 9q-3 -5 -1.5 -10 t-1.5 -10q-3 -1 -8 2.5t-7 8.5v11l6.5 6.5t11.5 4.5q11 0 14.5 -10.5t3.5 -15.5zM542 37q-7 -2 -17.5 -2t-20.5 -2q0 12 -0.5 28t-0.5 30h33l-4 -8q-2 -3 -7.5 -3.5t-6.5 -1.5l-1 -1q-1 -1 -2 -1.5t-2 -1.5q3 -2 8.5 -2.5t10.5 0.5v-13q-8 0 -11 0.5t-8 -8.5q8 -5 16 -7 t13 -7zM161 389l-2 4q-2 4 -2 9q5 -3 5.5 -7t-1.5 -6zM1036 8q2 -2 1 -7t-3 -5l-976 4v8h978zM486 67q0 -2 -3 -5t0 -22q-5 0 -11 7t-16 12q-3 -5 -4.5 -11.5t-6.5 -11.5q-3 34 -2.5 43.5t-2.5 11.5h31q6 1 9.5 -2.5t5.5 -3.5v-18zM196 336q0 -20 -13.5 -26.5t-22.5 -6.5 q-13 0 -21.5 5t-13 12.5t-6.5 16t-2 14.5q0 11 12 28q2 -8 0 -17.5t-2 -15.5q0 -20 12 -26.5t22 -6.5q8 0 16.5 6t8.5 14q0 5 -1.5 8.5t-4.5 8.5q-2 0 -5.5 1.5t-5.5 1.5q-3 -3 -1.5 -7.5t1.5 -9.5h-12q-1 1 -1 3q-2 4 -3 5q2 5 8.5 11.5t13.5 6.5q11 0 16 -10.5t5 -15.5z M430 40q-1 -1 -3 -2q-4 -2 -6 -2q-5 8 -9.5 14.5t-11.5 8.5q-3 -5 -5 -11.5t-7 -11.5q-2 34 -1 43.5t1 12.5h31l11 -11v-41zM378 64q0 -13 -8.5 -20.5t-16.5 -7.5q-17 0 -19.5 11t-2.5 17t3 17t19 11q9 0 17 -10.5t8 -17.5zM324 52q0 -5 -4.5 -11t-9.5 -8q-12 5 -18.5 9 t-6.5 17q0 19 8 25t13 11q2 0 7.5 -5.5t7.5 -10.5l-14 3q-5 -2 -8.5 -7t-3.5 -11t3.5 -9.5t5.5 -8.5q5 0 10 3t10 3zM209 45q0 -3 -3.5 -4.5t-5.5 -1.5q-2 5 -5 12t-10 11q-5 -8 -7 -14.5t-7 -11.5l-5 52q1 1 7 1.5t13 0t13.5 -1t9.5 -0.5q1 -6 -0.5 -11.5t-3.5 -10.5 t-2 -10t6 -11zM156 46q-5 -5 -10.5 -7.5t-10.5 -5.5q-8 5 -16.5 14.5t-8.5 18.5q0 7 8.5 18t14.5 11q7 0 11 -2.5t9 -4.5q2 -10 2.5 -20.5t0.5 -21.5zM110 91q-5 -5 -9.5 -8.5t-9.5 -5.5q12 -5 12 -14h-13q-3 -5 -4 -12t-3 -15l-9 8v47h36zM2245 478q0 19 -12.5 31t-31 18.5 t-38.5 8.5t-35 1v-128q9 0 21.5 -2t17.5 -2q6 0 24.5 5.5t29.5 12.5q6 3 10 10.5t9 12.5q1 8 3 17t2 15zM2004 513q-11 12 -19.5 16.5t-19.5 5.5t-26.5 0.5t-39.5 1.5q0 -5 -1.5 -16t0.5 -43h71q7 0 15.5 4.5t14.5 12.5q2 5 3.5 10.5t1.5 7.5zM2410 34q-5 5 -12 7t-12 4 q0 10 -2.5 20t-5.5 20q-2 -8 -5 -19.5t-3 -18.5q0 -6 2.5 -10.5t5.5 -7.5zM1743 475q-10 15 -18 30.5t-13 28.5q-12 -15 -19.5 -30.5t-14.5 -28.5h65zM2013 68v5h-25v-5h25zM1733 289v6l-25 -4v-6zM1951 49v19l-7 7h-12v-32q5 2 10.5 4t8.5 2zM1895 50v18q-2 2 -7.5 4.5 t-8.5 2.5q-5 -16 0 -32q3 0 8.5 2.5t7.5 4.5zM1776 289q-2 0 -5 2t-10 2q-3 0 -9 -3t-13 -7t-13 -7t-9 -3t-8 2t-11 5t-11 5t-8 2q-5 0 -27 -8t-49.5 -17t-55 -17t-43.5 -8q-7 0 -11.5 -0.5t-9.5 1.5q18 -6 50 -12.5t64.5 -11t58.5 -7.5t31 -3q6 0 17 3.5t19 3.5 q-1 9 6 21.5t18 16.5q-8 0 -17 -1t-16 1q6 8 14 11t16.5 6t17 7.5t14.5 15.5zM1727 66q-5 5 -11.5 7.5t-8.5 0.5l8 -8h12zM1671 53v11q-3 5 -8 8t-8 3q-2 -2 -4.5 -5t-2.5 -9q0 -7 4.5 -11.5t6.5 -7.5zM1090 235q-18 1 -39.5 9.5t-44.5 18t-46.5 17t-45.5 7.5q-6 0 -18 -2.5 t-20 -5.5q7 -11 24.5 -20t39.5 -16.5t44.5 -11.5t39.5 -4q3 0 11.5 1t18.5 2.5l20 3t16 1.5zM575 481q0 25 -20 42.5t-49 17.5q-26 0 -44 -20t-18 -46q0 -28 18.5 -45.5t45.5 -17.5q26 0 46.5 17t20.5 52zM374 544q0 13 -14 26t-31 13h-53v-85h21q10 0 23 1.5t25 6t20.5 14 t8.5 24.5zM803 57v11q-2 5 -8 7.5t-11 2.5q0 -8 -0.5 -16t-3.5 -16h12zM691 64q0 6 -5.5 10.5t-10.5 4.5q-2 -3 -4.5 -7t-2.5 -10t2.5 -9.5t4.5 -6.5q3 0 6.5 2t5.5 2q0 2 2 5t2 9zM638 74q-4 2 -10.5 4t-11.5 4v-13q2 0 7 -1.5t8 -0.5q1 1 2.5 1.5t2.5 2.5q1 1 2 3zM473 78 q-7 0 -11 4l-9 -9q9 -5 14.5 -1t5.5 6zM417 73q-2 3 -8 6t-8 3v-13q6 0 12 2q3 1 4 2zM364 64q0 6 -5 11t-10 7q-2 -5 -5 -11.5t-3 -13.5q0 -6 3 -7.5t5 -3.5q2 0 5.5 2t6.5 2q0 2 1.5 5t1.5 9zM196 72v10h-19v-6.5t6 -3.5h13zM147 67q0 6 -3 9.5t-5 5.5q-2 0 -7.5 -2.5 t-7.5 -5.5q0 -5 3 -12.5t8 -12.5l8.5 8.5t3.5 9.5zM1644 252q-2 -5 -7.5 -9t-10.5 -6l-25 5q11 2 21 8t18 13zM1720 226q-2 -2 -7 -4t-7 -4q-42 -2 -77 2t-77 12q2 1 7 0.5t10.5 0.5t10 3t6.5 8q8 -3 12 -10t10 -7t34 0.5t78 -1.5z" />
<glyph unicode="(" horiz-adv-x="1008" d="M941 8l-30 368q2 15 4 26t18 24h8v-418zM934 8l-76 257q0 1 1 6t3 10.5t5 9.5t7 4q9 0 14.5 -8t8.5 -18t4 -18.5t1 -9.5l6 -44t5 -43zM926 9q-21 38 -44.5 77.5t-44.5 80.5q-2 2 -2 5.5v7.5q0 5 3 10.5t8 5.5q11 0 16 -12q16 -42 31.5 -86t32.5 -89zM805 230 q-2 -1 -2.5 -2.5t-2.5 -2.5q-18 13 -34 17t-36 4q-33 0 -61 -15t-56 -32.5t-57.5 -32.5t-66.5 -15q-31 0 -57 11.5t-45 31t-30 44.5t-11 53q0 31 11.5 56.5t30.5 42.5t44.5 26.5t52.5 9.5q3 0 10.5 -2t13.5 -4q35 -11 49.5 -34t14.5 -49q0 -10 -3 -20.5t-9 -19.5t-15.5 -15 t-23.5 -6q-3 0 -3.5 -0.5t-3.5 -0.5q-1 0 -12.5 5t-14.5 12q5 -1 11.5 -1.5t9.5 -0.5q23 0 32.5 14.5t9.5 30.5q0 17 -7.5 29.5t-18.5 20.5t-24.5 12t-25.5 4q-25 0 -44.5 -10t-33 -26t-21 -36t-7.5 -40q0 -27 10.5 -49.5t27.5 -39t39.5 -25.5t46.5 -9q12 0 27.5 3t30.5 9 t28.5 14.5t21.5 19.5q-3 3 -5.5 3.5t-6 0t-10 -1.5t-18.5 0q23 15 42.5 26t38 18t37.5 10t41 3q7 0 20 -4t26 -10t24 -13t15 -14zM796 217q-9 2 -21.5 5t-29.5 3q-20 0 -42 -7.5t-41 -20.5t-31 -31t-12 -38q0 -14 9 -25.5t22 -11.5q9 0 16 4.5t7 14.5q0 8 -4.5 13.5 t-20.5 3.5l-1 1q-2 0 -2 2q-2 8 6 15.5t19 9.5q21 -2 29.5 -16t8.5 -25q0 -20 -15.5 -36.5t-37.5 -16.5q-25 0 -42 19t-17 42q0 27 14.5 47.5t36 34t45.5 20.5t42 7q14 0 29.5 -3t32.5 -11zM838 72q0 -28 -12.5 -49t-31.5 -35t-41.5 -21t-42.5 -7q-27 0 -52 9.5t-43.5 27 t-29.5 42t-11 53.5q0 3 0.5 10.5t2.5 11.5q0 2 2 3.5t3 3.5q2 8 7.5 20.5t13.5 21.5q-4 -5 -11.5 -20t-7.5 -23q0 -4 1 -4t2 -2q-5 -28 3.5 -53.5t25.5 -45t40.5 -31t48.5 -11.5q4 0 3 -1t2 -1q16 0 36 7t37.5 19.5t29.5 30t12 39.5q0 27 -15 48t-38 21t-32.5 -14.5 t-9.5 -30.5q0 -2 0.5 -6t0.5 -8q6 -9 11.5 -11.5t12.5 -2.5q6 0 14 3q-2 -2 -6.5 -3.5t-7.5 -1.5q-7 0 -8 1q-6 3 -14 8t-13 10q-2 2 -2 7.5v8.5q0 28 17 40t37 12q32 0 49 -23.5t17 -52.5zM611 191q-32 -39 -71.5 -54.5t-74.5 -15.5q-12 0 -18 0.5t-10.5 1.5t-9.5 2l-15 3 l-5 2.5t-5 1.5q-16 3 -34.5 16t-35.5 30t-29.5 36.5t-15.5 34.5q-1 2 -3.5 8.5t-2.5 9.5v6q9 -30 28.5 -55t44.5 -43t52.5 -27.5t52.5 -9.5q2 0 13.5 -1t14.5 -1q14 0 32 5t35.5 13t33 18t23.5 19zM590 158q-14 -14 -32.5 -25.5t-45.5 -25.5q-1 0 -2 -3t-3 -4 q-23 -10 -52 -15t-58 -5q-59 0 -110.5 21t-90 56t-61 81t-22.5 97q0 30 9.5 59t28 51.5t46 36.5t62.5 14q18 0 37.5 -5.5t35.5 -16.5t26.5 -28t10.5 -40q0 -16 -7.5 -31.5t-19.5 -17.5q-2 0 -3.5 -1.5t-4.5 -3.5q-6 -3 -15 -5t-12 -2q-15 0 -33 12t-18 33q0 9 1.5 12t8.5 11 q-7 -7 -7.5 -10.5t-0.5 -11.5q0 -12 5.5 -20t13 -13.5t15.5 -7.5t14 -2q8 0 19 3.5t16 9.5q0 5 1 7q6 8 11 19t5 19q0 20 -10.5 35t-26 24.5t-32.5 14.5t-30 5q-19 0 -40 -8t-39 -22.5t-32 -35.5t-18 -47q-2 -8 -3 -21.5t-1 -16.5q0 -38 16 -75.5t44.5 -69.5t66.5 -56 t82 -34q4 -1 10.5 -2t13.5 -2.5t12.5 -2.5t7.5 -1h19q3 0 8.5 0.5t10.5 0.5q11 1 25 3t25 5q8 2 21 6.5t16 4.5t3 -0.5t3 -0.5q5 0 17 6.5t25.5 15t24.5 16t13 10.5zM668 -60q0 -11 -9 -12.5t-12 -1.5q-13 0 -28 8.5t-28 22t-23 30t-13 32.5q-1 5 -1.5 14t-0.5 12v11.5 t1.5 10t4 13t7.5 20.5q-2 -8 -3.5 -19.5t-1.5 -15.5q0 -2 1.5 -11.5t3.5 -17.5q2 -13 10.5 -26t20 -23.5t25 -17.5t25.5 -8q8 -2 14.5 -8t6.5 -13zM562 113q-6 -19 -25 -44t-43 -47t-48 -37t-41 -15q-4 0 -11.5 2.5t-7.5 11.5q0 4 1 8t10 9q15 7 32 11.5t33 12.5 q23 11 52 35.5t48 52.5zM561 126q-23 -21 -52.5 -39t-62 -31.5t-65.5 -21.5t-62 -8q-3 0 -7.5 -0.5t-7.5 -0.5q-29 0 -62 6.5t-65 22.5t-61.5 42t-51.5 64q-12 20 -17.5 40.5t-5.5 37.5q0 6 1.5 16.5t7.5 16.5q13 -8 17.5 -24t8.5 -28q11 -30 24.5 -56t40.5 -54 q25 -23 60 -41q27 -14 52.5 -18.5t58.5 -8.5q7 2 12 1t10 -1q55 4 113.5 23t113.5 62z" />
<glyph unicode=")" horiz-adv-x="1006" d="M447 126q55 -43 113.5 -62t113.5 -23q5 0 10 1t12 -1q32 4 58 8.5t53 18.5q35 18 60 41q27 28 40 54t24 56q5 12 9.5 28t17.5 24q5 -6 7 -16.5t2 -16.5q0 -17 -6 -37.5t-17 -40.5q-22 -38 -51.5 -64t-61.5 -42t-65 -22.5t-62 -6.5q-3 0 -7.5 0.5t-7.5 0.5q-29 0 -62 8 t-65.5 21.5t-62 31.5t-52.5 39zM445 113q20 -28 49 -52.5t52 -35.5q16 -8 33 -12.5t32 -11.5q9 -5 10 -9t1 -8q0 -9 -7.5 -11.5t-11.5 -2.5q-17 0 -41 15t-48 37t-43 47t-26 44zM340 -60q0 7 6.5 13t14.5 8q12 1 25.5 8t25 17.5t20 23.5t10.5 26q2 8 3.5 17.5t1.5 11.5 q0 4 -1.5 15.5t-3.5 19.5q4 -13 7 -20.5t4 -13t1.5 -10t0.5 -11.5q0 -3 -0.5 -12t-1.5 -14q-3 -16 -13 -32.5t-23 -30t-28 -22t-28 -8.5q-4 0 -12.5 1.5t-8.5 12.5zM418 158q2 -3 13 -10.5t24 -16t25.5 -15t17.5 -6.5q3 0 3 0.5t3 0.5t16 -4.5t21 -6.5q11 -3 25 -5t25 -3 q5 0 10.5 -0.5t7.5 -0.5h20q4 0 19.5 3t23.5 5q44 10 82 34t66.5 56t45 69.5t16.5 75.5q0 3 -1 16.5t-3 21.5q-5 26 -18.5 47t-31.5 35.5t-39 22.5t-40 8q-13 0 -30 -5t-32.5 -14.5t-26 -24.5t-10.5 -35q0 -8 4.5 -19t11.5 -19q1 -2 1 -7q5 -6 16 -9.5t19 -3.5q6 0 14 2 t15.5 7.5t13 13.5t5.5 20q0 8 -0.5 11.5t-8.5 10.5q8 -8 9.5 -11t1.5 -12q0 -21 -18 -33t-33 -12q-3 0 -12 2t-15 5q-3 2 -5 3.5t-3 1.5q-12 2 -20 17.5t-8 31.5q0 23 10.5 40t27 28t35.5 16.5t37 5.5q35 0 62.5 -14t46 -36.5t28.5 -51.5t10 -59q0 -51 -22.5 -97t-61 -81 t-90.5 -56t-110 -21q-29 0 -58 5t-52 15q-2 1 -3 4t-3 3q-26 14 -44.5 25.5t-32.5 25.5zM397 191q8 -9 23.5 -19t33 -18t35.5 -13t32 -5q3 0 14 1t14 1q25 0 52.5 9.5t52 27.5t44 43t28.5 55v-6q1 -3 -2 -9.5t-3 -8.5q-3 -15 -15.5 -34.5t-29.5 -36.5t-35.5 -30t-34.5 -16 q-2 0 -5 -1.5l-5 -2.5l-15 -3t-9.5 -2t-10.5 -1.5t-18 -0.5q-35 0 -74.5 15.5t-71.5 54.5zM170 72q0 29 17 52.5t49 23.5q20 0 37 -12t17 -40v-8.5t-2 -7.5q-5 -5 -13 -10t-14 -8q-2 -1 -8 -1q-3 0 -7.5 1.5t-7.5 3.5q7 -3 14 -3q8 0 13.5 2.5t11.5 11.5q0 4 0.5 8t0.5 6 q0 16 -9.5 30.5t-32.5 14.5t-38 -21t-15 -48q0 -22 12 -39.5t29.5 -30t37 -19.5t35.5 -7q4 0 3 1t2 1q25 0 48.5 11.5t41 31t25.5 45t4 53.5q1 2 1.5 2t0.5 4q0 8 -7 23t-11 20q8 -9 13.5 -21.5t7.5 -20.5q0 -2 2 -3.5t3 -3.5q2 -4 2 -11.5v-10.5q0 -29 -11 -53.5t-29.5 -42 t-43 -27t-52.5 -9.5q-20 0 -42.5 7t-41 21t-31 35t-12.5 49zM212 217q17 8 32.5 11t29.5 3q18 0 42 -7t45.5 -20.5t36 -34t14.5 -47.5q0 -23 -17 -42t-43 -19q-21 0 -36.5 16.5t-15.5 36.5q0 11 8.5 25t28.5 16q11 -2 19.5 -9.5t6.5 -15.5l-2 -2q-1 -1 -2 -1q-16 2 -20 -3.5 t-4 -13.5q0 -10 6.5 -14.5t15.5 -4.5q14 0 22.5 11.5t8.5 25.5q0 20 -12 38t-30.5 31t-40.5 20.5t-42 7.5q-17 0 -29.5 -3t-21.5 -5zM203 230q4 7 15 14t24 13t25.5 10t19.5 4q22 0 41 -3t38 -10t38.5 -18t42.5 -26q-12 -1 -18.5 0t-10 1.5t-6 0t-5.5 -3.5q8 -11 21.5 -19.5 t28.5 -14.5t30.5 -9t27.5 -3q24 0 46 9t39 25.5t27.5 39t10.5 49.5q0 20 -7 40t-20.5 36t-33 26t-44.5 10q-12 0 -25.5 -4t-24.5 -12t-18.5 -20.5t-7.5 -29.5q0 -16 9 -30.5t32 -14.5q4 0 10.5 0.5t11.5 1.5q-3 -7 -14.5 -12t-13.5 -5q-3 0 -3 0.5t-3 0.5q-14 0 -23.5 6 t-15.5 15t-9 19.5t-3 20.5q0 26 14.5 49t49.5 34q6 2 13.5 4t10.5 2q27 0 52.5 -9.5t44.5 -26.5t30.5 -42.5t11.5 -56.5q0 -28 -11 -53t-30 -44.5t-45 -31t-57 -11.5q-37 0 -67 15t-58 32.5t-56 32.5t-61 15q-19 0 -35 -4t-35 -17q-1 1 -1.5 2.5t-2.5 2.5zM82 9 q17 45 32.5 89t31.5 86q3 12 16 12q5 0 8 -5.5t3 -10.5v-7.5t-2 -5.5q-21 -41 -44.5 -80.5t-44.5 -77.5zM95 154q2 21 5 43l6 44q0 1 1 9.5t4 18.5t8.5 18t14.5 8q4 0 7 -4t5 -9.5t3 -10.5t1 -6l-76 -257zM67 426h7q16 -13 18.5 -24t4.5 -26l-30 -368v418z" />
<glyph unicode="," horiz-adv-x="175" d="M130 58q0 -1 -1 -8.5t-2.5 -17.5t-3.5 -21t-4 -19t-7 -20t-18 -23q-5 -4 -17 -12t-25 -15.5t-24 -13t-13 -5.5t-6 1.5t-6 1.5q2 6 3.5 13t3.5 13q21 13 35.5 25.5t14.5 31.5q0 9 -4.5 18.5t-10 18t-10 15t-4.5 9.5q0 6 7 15t16 17t17 14t11 6q4 -1 8 1.5t7 2.5 q10 0 16 -6t10 -13.5t5.5 -16t1.5 -12.5z" />
<glyph unicode="-" horiz-adv-x="267" d="M227 291q0 -5 -6 -17t-14 -12l-104 -2q-3 0 -14 0.5t-24 3.5t-23 8.5t-10 15.5q0 2 1.5 5t2.5 6q3 3 6 7.5t7 3.5q17 -1 36 1.5t38 6t37.5 6.5t33.5 3h6.5t5.5 -1q3 -1 6.5 -5.5t6.5 -10t5.5 -11t2.5 -8.5z" />
<glyph unicode="." horiz-adv-x="168" d="M125 55q0 -7 -5 -16t-13 -17t-17 -13.5t-16 -5.5q-14 0 -25 13.5t-11 22.5t7 17t17 14t19.5 9.5t14.5 3.5q8 0 18.5 -9t10.5 -19z" />
<glyph unicode="/" />
<glyph unicode="0" horiz-adv-x="356" d="M336 452q-2 -15 -3.5 -29.5t-4.5 -30.5q-3 -20 -10 -47t-12 -52q-4 -20 -9.5 -50.5t-14.5 -64t-22 -67t-30.5 -60.5t-41 -43.5t-52.5 -16.5h-43q-16 0 -27.5 6t-24.5 21q-5 5 -7 17t-6 21q-5 14 -6 31t-1 31q0 37 8 81t19 80q4 8 1 15q2 1 4 5q1 8 0.5 16t0.5 15 q1 2 2.5 6t1.5 6q4 26 9.5 54.5t15 58t24.5 59.5t38 58q2 2 7.5 6t10.5 7q12 6 25.5 13t26.5 8q26 2 36 2h13t9.5 -2.5t11.5 -4.5q16 -8 25.5 -20.5t15 -27t7 -30t3.5 -28.5q-2 -30 -1 -36t1 -7zM271 493q0 10 -1 26.5t-7 24.5q-2 4 -7 9t-8 5h-14.5t-17 -0.5t-15.5 -1.5 t-10 -4q-17 -16 -27 -34t-16 -36.5t-10 -37t-8 -34.5q-1 -4 -4 -8t-3 -7q-2 -18 -9 -51t-14 -73t-12.5 -83t-5.5 -79v-22.5t4 -23t14 -18t30 -7.5q12 0 24.5 3.5t20.5 14.5q20 29 30.5 55t18.5 61q4 15 8.5 32t9 33.5t8 30t5.5 22.5q1 7 2.5 16t2 17.5t1 15t0.5 8.5z" />
<glyph unicode="1" horiz-adv-x="356" d="M256 576l-18 -104q-11 -48 -19.5 -95t-17.5 -95q-7 -31 -13.5 -67.5t-13.5 -71.5q-6 -29 -14 -69t-15 -76q-4 -2 -14.5 -5.5t-13.5 -3.5t-7.5 2t-9.5 4l99 523q1 14 -6 20t-17 7.5t-20 1t-16 -0.5q2 7 3 14.5t3 13.5q11 7 35 8t43 1q4 0 15 -2.5t17 -4.5z" />
<glyph unicode="2" horiz-adv-x="356" d="M349 506q0 -3 -0.5 -8.5t-1.5 -10.5q-8 -53 -33 -106t-59.5 -107t-75 -107.5t-80.5 -106.5q-2 -3 -2 -7.5v-7.5q0 -8 3 -11h132q2 -5 6 -11t4 -10q0 -2 -1.5 -6.5t-2.5 -8.5q-2 -2 -6 -4.5t-7 -2.5h-210q-3 0 -4.5 2t-3.5 4q9 16 24 37.5t29 44.5q25 43 63.5 95.5t74 108 t61 109t25.5 98.5q0 59 -55 59q-27 0 -40.5 -9t-22.5 -25.5t-18 -39t-25 -49.5q-2 -3 -9.5 -5t-10.5 -2t-9.5 2t-11.5 3q3 17 6 35.5t8.5 37.5t16 37t30.5 33q9 8 25 16t33 11q8 1 19.5 1.5t22.5 0.5h19h10q3 0 12 -3t14 -5q12 -3 24 -11t16 -22q5 -12 8 -25t3 -24z" />
<glyph unicode="3" horiz-adv-x="356" d="M343 520q0 -8 -2 -21.5t-4.5 -28.5t-5.5 -30l-5 -25q-3 -12 -10.5 -29t-18.5 -31q-5 -5 -14 -10l-18 -10t-15.5 -11.5t-6.5 -14.5q0 -7 3.5 -11.5t9 -8t12.5 -8t14 -10.5q8 -8 9.5 -22t1.5 -26q0 -8 -1.5 -21.5t-6.5 -21.5q-2 -2 -2 -7t1 -9h-1q-1 -1 -1 -2 q2 -26 -10 -58t-30 -61q-3 -6 -11 -12t-15 -10q-16 -10 -37.5 -18t-42.5 -12q-6 2 -16 1t-33 -1q-12 4 -27 7.5t-26 10.5q-2 1 -4.5 5t-4.5 8q-5 11 -8.5 26t-3.5 28q0 18 9 31t29 13q2 0 9.5 -2t12.5 -4q0 -10 -0.5 -22t-0.5 -23q0 -5 5.5 -11t13.5 -11t15.5 -8t12.5 -3h20 q28 0 46 22.5t28 52.5t13.5 59.5t3.5 42.5q0 21 -3.5 34t-11.5 22t-22 15.5t-35 13.5q2 10 3.5 20t3.5 18q5 0 10.5 0.5t10.5 0.5q8 2 20.5 3t20.5 7q11 9 19.5 20.5t15 24.5t11.5 25t8 22q1 2 1 8v12v11v7v45q0 5 -3.5 10.5t-7.5 11t-7.5 9t-4.5 3.5q-10 4 -17 4l-21 1 q-13 -1 -25 -7t-21 -20q-3 -6 -6.5 -17.5t-9.5 -21.5q-4 -6 -12 -16t-14 -19h-36v7q0 2 3.5 18.5t8.5 27.5q6 16 16 32t22.5 29t27.5 21.5t31 9.5q3 0 7 0.5t9 1.5q11 1 27.5 2t19.5 1q13 0 29.5 -11t25.5 -16q2 -5 7 -13t7 -14q2 -8 3.5 -20.5t1.5 -15.5z" />
<glyph unicode="4" horiz-adv-x="356" d="M340 585l-69 -358q-1 -4 2.5 -9t8 -9.5t9 -8.5t7.5 -5q2 -1 7.5 -1t9.5 -1q-12 -20 -19 -36q-6 -2 -12 -1.5t-10 -1.5q-11 -6 -16 -14t-7.5 -17t-3.5 -17.5t-3 -16.5q-4 -20 -7 -43t-11 -47q-2 -5 -12 -7t-16 -2q-3 0 -10.5 1.5t-12.5 3.5l23 129q2 5 0 13q-2 4 -6.5 11 t-7.5 7h-167q2 12 3.5 30.5t8.5 33.5q8 18 20.5 33t23.5 32q7 11 16.5 27.5t19.5 31.5q25 39 44 71t37 60.5t37 55.5t45 54q1 1 6.5 3t12 3t12.5 2t8 1q6 0 15 -1.5t14 -6.5zM265 441q0 3 -1 12.5t-2 15.5l-4 4l-4 4q-3 1 -11 1l-162 -267q3 -4 7 -9.5t9 -8.5h102q1 0 5 2.5 t8.5 6.5t8 7t3.5 5q8 22 10 43.5t6 41.5q5 20 9 40.5t7 37.5q1 8 3 18.5t3 20t2 16.5t1 9z" />
<glyph unicode="5" horiz-adv-x="356" d="M350 588q-2 -11 -3 -20t-2 -17h-122q-8 -6 -13 -17q-1 -4 -9 -24t-17 -44.5t-16.5 -46.5t-7.5 -29t-1 -11.5t15 -13.5q3 -2 19 -2.5t30 -3.5q11 -2 25 -8.5t28 -16.5q6 -5 11 -15.5t8.5 -23.5t5 -24.5t1.5 -17.5q0 -26 -10 -65t-29 -77.5t-46.5 -69t-62.5 -39.5l-9 -3 l-12 -4t-11.5 -3.5t-6.5 -1.5q-2 0 -11 -0.5t-19.5 -0.5t-20 -0.5t-10.5 -0.5q-3 0 -16.5 5.5t-22.5 10.5q0 5 -8 13q2 4 4.5 9.5t5.5 7.5q7 5 18.5 9.5t14.5 4.5q1 0 9 -1.5t17 -3t16.5 -2.5t9.5 -1q15 0 34.5 8t28.5 15q8 6 19.5 23t22 38t18 41.5t7.5 32.5v10.5t-0.5 22 t-2 25t-3.5 21.5q-5 18 -18.5 28t-30 14.5t-34 5.5t-29.5 3q-3 1 -7.5 6t-8.5 6q6 21 14.5 45.5t13.5 40.5q11 34 21 71.5t25 78.5q1 1 6 4t11.5 6t13 5t10.5 2h123q2 0 6 -2t8 -3z" />
<glyph unicode="6" horiz-adv-x="356" d="M317 269q0 -3 -1 -12t-1 -38q0 -2 -2.5 -5.5t-2.5 -6.5q-1 -50 -19.5 -96t-51.5 -93q-4 -5 -14.5 -11t-18.5 -8q-5 -2 -10 -5t-10 -4q-10 -2 -25 -1t-19 1q-2 0 -17 -1t-26 1q-3 1 -13 4t-14 8q-6 6 -11.5 17t-10 24t-7.5 26t-3 23q0 26 0.5 36.5t2 19.5t5 23t9.5 46 q1 4 4.5 16t8.5 27t10 30.5t10 26.5q11 27 29.5 62.5t40.5 72t46 71t46 59.5q1 2 6.5 4t12 3.5t11.5 2.5t7 1q3 0 9.5 -1.5t11.5 -4.5q-14 -22 -29 -44t-29 -43q-19 -28 -41 -60t-46 -68q-2 -3 -2.5 -7.5t-0.5 -7.5t-0.5 -6t2.5 -3t10.5 3l12.5 5q8 2 18 3t13 1t14.5 -3 t18.5 -4q20 -1 32.5 -9.5t20 -21t10.5 -27t3 -26.5zM255 197q0 18 -0.5 37t-8.5 55q-7 10 -21 13t-23 3q-10 0 -21 -3t-19 -6l-2 -2q-20 -17 -29 -43t-19 -52q-2 -5 -3.5 -10.5t-1.5 -8.5v-93q0 -25 10 -38.5t39 -13.5q7 0 19.5 3t17.5 7q12 12 22 28.5t17.5 33.5t13 33 t8.5 27q2 5 1.5 16t-0.5 14z" />
<glyph unicode="7" horiz-adv-x="356" d="M356 575q-21 -43 -42.5 -85.5t-43.5 -85.5q-13 -26 -29 -56.5t-32.5 -62t-32 -61t-27.5 -53.5q-8 -15 -19 -38t-23 -48t-24 -48t-20 -38q-8 -2 -21.5 -4.5t-16.5 -2.5t-11 2.5t-13 4.5l270 522v13l-2.5 2.5t-3.5 0.5l-156 -3l2 3q0 8 -1 17.5t-1 12.5q0 8 10.5 11.5 t15.5 3.5l175 3q12 0 25 -2.5t21 -7.5z" />
<glyph unicode="8" horiz-adv-x="356" d="M340 525q0 -7 -2 -20t-4.5 -26.5t-4.5 -25t-3 -15.5q-4 -20 -11 -36t-21 -34q-9 -12 -18.5 -23t-22.5 -24q5 -8 10 -13t11 -13q5 -7 10.5 -23.5t5.5 -27.5q0 -1 -0.5 -7t-1.5 -14t-2 -17.5t-2 -17.5q-1 -5 -4 -15t-5 -17q-1 -3 -2 -7.5t-1 -9.5q0 -24 -12 -49.5 t-26 -47.5q-8 -12 -23 -20.5t-23 -13.5q-13 -7 -21.5 -10.5t-15 -4.5t-13.5 -1h-18q-12 0 -21 -0.5t-18.5 2t-21 8.5t-27.5 19q-3 2 -5.5 9.5t-5 17.5t-4 20t-1.5 18q0 24 4 49t13 60q0 1 -1 3.5t0 4.5q7 20 21.5 49t40.5 53q5 5 10.5 12t10.5 13q-11 14 -18 22.5t-11 15 t-5 13.5t-1 18q0 19 6 52t18.5 66t31.5 58.5t45 30.5q6 1 11 3t12 4q6 2 17.5 1.5t15.5 -0.5q12 0 19 1t14.5 -0.5t17 -6t26.5 -15.5q3 -2 7.5 -12t9.5 -18q5 -10 7 -18.5t2 -19.5zM273 487v7.5v14.5t-1 16t-3 13q-6 17 -18 19.5t-32 4.5q-21 -2 -35.5 -18.5t-23 -39 t-12 -46.5t-3.5 -40q0 -10 1 -21.5t5.5 -21.5t13.5 -16.5t25 -6.5q12 0 18.5 2t17.5 7q5 2 8.5 6.5t4.5 6.5q12 24 18.5 37.5t10 24t4.5 21.5t1 30zM225 222q0 2 -0.5 8t-1 13.5t-1 14.5t-1.5 11q-11 7 -28.5 15t-25.5 8q-17 0 -28.5 -8.5t-20 -22t-14.5 -31t-11 -35.5 q-2 -7 -3.5 -12.5t-3.5 -11.5q-1 -3 -2 -10l-2 -14t-1.5 -13t-0.5 -7q0 -3 0.5 -14.5t2.5 -26.5q1 -8 1.5 -17.5t2.5 -12.5q6 -12 19.5 -15.5t22.5 -3.5q4 0 12 2t17 5t16.5 7.5t9.5 9.5q10 25 17.5 44.5t13 37.5t8 36.5t2.5 42.5z" />
<glyph unicode="9" horiz-adv-x="356" d="M316 478q0 -23 -7 -47t-10 -48q-4 -42 -15.5 -73.5t-26.5 -66.5q-13 -29 -31.5 -61t-39 -63.5t-41 -60.5t-36.5 -51q-3 -4 -8.5 -7t-12 -5.5t-12.5 -4t-9 -1.5t-10.5 1.5t-12.5 4.5q35 53 71 106.5t72 107.5q2 3 2 11q0 18 -17 18q-3 0 -10.5 -2.5l-13.5 -4.5 q-7 -2 -17 -2.5t-14 -0.5q-23 0 -37.5 7t-23 18.5t-12 26.5t-3.5 32q0 21 5.5 53t14 64.5t17.5 58.5t16 34q2 6 6 12q2 2 4.5 6t4.5 6q4 5 9 10.5t10 9.5l10 8t10 6q6 2 14.5 5.5t15.5 4.5q6 1 14.5 2t16.5 1.5t14 0.5h8q14 0 21.5 -1t13 -3.5t12 -7.5t19.5 -13q4 -3 8 -14 t6 -24.5t3.5 -28t1.5 -24.5zM254 472q0 13 -1 25.5t-6.5 23t-16 17t-28.5 6.5h-14q-5 -1 -11.5 -2.5t-10.5 -4.5q-9 -8 -20.5 -25.5t-21 -39t-16 -44.5t-6.5 -43v-11.5t0.5 -22.5t2 -27t4.5 -24q5 -14 20.5 -15t27.5 -1h13t15 2q8 3 16.5 7.5t12.5 9.5q10 13 17.5 33.5 t12.5 44.5t7.5 48t2.5 43z" />
<glyph unicode=":" horiz-adv-x="160" d="M155 233q0 -3 -0.5 -8t-2.5 -8q-1 -4 -6.5 -10.5t-13 -12.5t-15 -10.5t-11.5 -4.5q-8 0 -14.5 5t-11 11.5t-7.5 13t-3 9.5q0 13 6.5 22t15.5 14t18 7t15 2q2 0 11 -5t14 -10q3 -2 4 -7t1 -8zM113 55q0 -8 -5.5 -17t-13.5 -16.5t-17.5 -13t-16.5 -5.5q-14 0 -23 13t-9 24 v6.5t2 7.5q3 4 10 9.5t16 9.5t17 7t12 3q10 0 19 -10t9 -18z" />
<glyph unicode=";" horiz-adv-x="171" d="M147 225q0 -6 -5.5 -14.5t-13.5 -16.5t-16.5 -13.5t-13.5 -5.5q-2 0 -7.5 2t-11 5.5t-9.5 7.5t-4 8q0 2 1.5 10t3.5 16.5t4 15.5t3 8q6 3 15.5 7t12.5 4q14 0 27.5 -11.5t13.5 -22.5zM121 -1q0 -2 -4 -15t-9 -23q-2 -4 -12 -14t-21 -19q-14 -13 -35.5 -26.5t-38.5 -17.5 v17q-1 4 7.5 13.5t10.5 12.5q3 3 5.5 9t6.5 11q9 9 13.5 15.5t4.5 17.5q0 3 -3.5 13.5t-5.5 15.5q-2 3 -7.5 6.5t-10.5 8.5q0 8 3 19t10 20.5t16.5 16.5t21.5 7q5 0 12 -2.5t13.5 -6.5t12 -9t6.5 -9t2.5 -9t1.5 -8v-44zM61 -35v5h-3v-5h3z" />
<glyph unicode="&#x3c;" />
<glyph unicode="=" />
<glyph unicode="&#x3e;" />
<glyph unicode="?" />
<glyph unicode="@" />
<glyph unicode="A" horiz-adv-x="365" d="M325 8q-6 -4 -18 -8.5t-15 -4.5t-12.5 4t-15.5 7v63q-1 3 -1.5 13.5t-2.5 16.5q-3 7 -13 12l-127 1q-7 -6 -13.5 -18t-12.5 -27t-12 -31t-13 -28q-1 -2 -5.5 -4t-10.5 -4t-11 -3.5t-6 -1.5q-3 0 -9 3.5t-12 5.5q37 88 71.5 175.5t70.5 175.5q21 50 44 109.5t53 111.5 q1 2 6 4t11 3.5t11 2.5t6 1q3 0 9 -1.5t11 -3.5q3 -28 4.5 -56.5t3.5 -55.5q0 -10 1 -24t1.5 -27t1 -23t0.5 -11v-54zM268 164v294q-5 6 -10 6q-8 0 -15 -11t-12 -24t-8 -24t-3 -12q-10 -25 -19.5 -50.5t-18.5 -50.5q-4 -12 -10 -29t-11 -28q-8 -22 -17 -35t-9 -30 q0 -12 5.5 -17.5t14 -8t18 -2.5h17.5q3 0 15.5 1t15.5 1q11 0 23.5 3t23.5 17z" />
<glyph unicode="B" horiz-adv-x="328" d="M345 483q0 -14 -2.5 -29.5t-6.5 -29.5q-2 -3 -4.5 -7t-4.5 -8q-6 -12 -13.5 -30.5t-16.5 -32.5q-6 -10 -17.5 -23t-21.5 -22q-2 -2 -5.5 -3t-7.5 -3q7 -11 17 -20.5t17 -19.5q5 -7 10.5 -22.5t5.5 -27.5q0 -21 -6.5 -52t-20.5 -60.5t-35.5 -53.5t-51.5 -32q-7 -2 -18 -7 t-14 -5h-62q-15 0 -33.5 1t-35.5 10l112 581l130 9q14 0 27 -3.5t24 -12.5q9 -8 14 -18t8 -21t5 -21.5t6 -19.5q1 -2 1 -8v-9zM276 466q0 3 -0.5 16t-2.5 23q-1 6 -1.5 13t-4.5 12q-20 26 -62 26q-7 0 -15 -0.5t-13 -10.5q-6 -11 -13.5 -36t-13.5 -53.5t-10 -56t-4 -43.5 q0 -8 -0.5 -14.5t2 -11t8.5 -6.5t18 -2q20 0 34 5t29 12q3 2 6.5 6t5.5 6q12 24 19.5 39.5t11.5 27.5t5 23t1 25zM230 185q0 5 -1 17t-4 25t-8 24t-13 15q-12 6 -29 9.5t-28 3.5q-3 0 -5.5 0.5t-4.5 -1.5q-13 -8 -20.5 -25t-12.5 -38t-8.5 -43.5t-8.5 -43.5q-1 -6 -2 -13.5 t-1.5 -15t-0.5 -13v-6.5q0 -5 -0.5 -12t1 -13t6 -10.5t15.5 -4.5q6 0 16.5 1.5t21 4t19.5 5.5t12 5q28 20 36.5 46t12.5 49q2 8 4.5 20t2.5 14z" />
<glyph unicode="C" horiz-adv-x="309" d="M331 586q0 -3 -2.5 -8.5t-6.5 -10t-7.5 -8t-6.5 -3.5h-8.5t-14 0.5t-14 0.5h-7.5q-3 0 -5.5 -1.5t-4.5 -1.5q-15 0 -31.5 -11.5t-32 -27.5t-27.5 -35t-16 -34q-2 -4 -3.5 -10.5t-3.5 -11.5q-3 -8 -7.5 -17.5t-6.5 -20.5q-2 -8 -2 -17.5t-2 -17.5q-4 -13 -10.5 -25 t-11.5 -25q-1 -3 -0.5 -11.5t0.5 -16.5q0 -12 -0.5 -28t-1 -30.5t-1.5 -25.5t-1 -12q0 -29 8 -59.5t37 -56.5q1 -2 8.5 -4t16.5 -4.5t18 -4t15 -1.5h7.5t10.5 2q2 -5 4 -11.5t2 -9.5q0 -15 -12 -27q-8 -7 -24 -7h-27t-20.5 -0.5t-20 1.5t-23.5 8t-31 20q-5 3 -9.5 11.5 t-8.5 16.5q-11 25 -17 53.5t-6 55.5q0 17 3 43t7.5 52.5t9.5 48.5t8 31q3 10 3 21.5t5 23.5l10.5 31.5t16 42.5t23 47t32.5 46q18 21 49 38t57 25q8 2 21 1.5t16 -0.5q1 0 6.5 -1t12 -2.5t13 -3.5t10.5 -3q4 -8 4 -15z" />
<glyph unicode="D" horiz-adv-x="362" d="M383 455q-1 -25 -1 -39v-21t0.5 -8.5l0.5 -1.5q-6 -32 -14.5 -77.5t-17.5 -86.5q-1 -3 -4 -8t-5 -10q-6 -18 -12.5 -37t-14.5 -38t-19.5 -37t-27.5 -34q0 -1 -1 -3q-2 -4 -3 -5q-13 -10 -31 -19t-37.5 -16.5t-38.5 -12t-34 -4.5q-2 0 -9.5 0.5t-16 0.5t-16.5 0.5t-9 0.5 q-3 0 -9.5 0.5t-10.5 0.5q-3 0 -12 2.5t-17 6.5q21 113 43.5 226.5t44.5 227.5q4 23 10 56.5t12 68.5l2.5 5t3.5 5q2 4 9.5 5t11.5 3q15 7 22.5 9t21.5 2q1 0 10.5 -1t21.5 -2.5t24 -3.5t19 -3q2 -1 4.5 -4t5.5 -5q16 -8 33 -18t28 -23q20 -21 26 -49.5t7 -52.5zM313 448 q0 12 -1 28t-5.5 31t-14.5 26.5t-28 15.5q-4 1 -8.5 3t-8.5 3q-8 2 -19 2h-13q-8 0 -19.5 -0.5t-13.5 -13.5q-3 -20 -8 -45t-10 -49.5t-9.5 -47.5t-7.5 -39q-4 -22 -9.5 -50t-9.5 -45q-4 -21 -10 -53.5t-11.5 -62.5t-9.5 -52t-4 -23q0 -6 1.5 -15t12.5 -17l22 2q8 0 16 1 t14 3q8 2 18 4t16 5q20 12 32.5 27.5t21 32.5t15 34.5t14.5 34.5q3 7 2 16t0 12q10 27 15 55.5t11 49.5q2 5 3.5 10.5t2.5 8.5q1 5 -1.5 11.5t-1.5 9.5q0 12 1 26.5t2 27.5t2 22t1 11z" />
<glyph unicode="E" horiz-adv-x="316" d="M339 584q-2 -10 -2.5 -17.5t-2.5 -13.5h-127q-17 0 -20 -12.5t-5 -23.5q-5 -21 -10.5 -50.5t-11 -56t-9 -46t-3.5 -21.5t-0.5 -5.5t0.5 -5.5q0 -3 8.5 -11t13.5 -8h73q3 0 8 -1t9 -2l2 2q-1 -9 -3 -19t-2 -17h-113q-2 -2 -5.5 -5t-5.5 -8q-6 -25 -13 -59.5t-13 -66.5 t-10 -55t-4 -24q0 -7 -0.5 -11t7.5 -9h71q1 0 8 -0.5t15.5 -2t17.5 -3l15 -2.5q6 -2 7.5 -7t1.5 -8q0 -11 -10.5 -14t-17.5 -3h-171q-2 0 -5.5 1.5t-5.5 3.5l110 578q5 1 12 4.5t11 3.5h166q3 0 6.5 -1.5t7.5 -3.5z" />
<glyph unicode="F" horiz-adv-x="311" d="M333 585q-2 -8 -3.5 -16t-1.5 -15l-123 -1q-4 0 -11 -3.5t-9 -11.5q-4 -17 -7 -35.5t-8 -37.5q-3 -14 -6.5 -33.5t-7 -37.5t-6 -31t-2.5 -14q0 -10 7 -17t19 -15h92q-2 -11 -2.5 -19t-2.5 -16h-115q-3 -2 -6 -4.5t-3 -5.5q-14 -66 -26.5 -133.5t-26.5 -135.5 q-7 0 -19.5 -2.5t-15.5 -2.5q-2 0 -10 2.5t-14 4.5q5 26 10 54.5t10 52.5q5 25 10.5 54.5t11.5 58.5q3 17 8 45.5t10 49.5l7.5 40t9.5 47q7 38 15.5 81.5t17.5 91.5q2 2 4 4.5t4 2.5q10 2 16 2h168q4 -2 6 -4z" />
<glyph unicode="G" horiz-adv-x="351" d="M376 529q0 -2 -2.5 -11.5t-4.5 -16.5q-8 -2 -18 -6t-13 -4t-11.5 3t-10.5 8q-6 23 -12.5 35.5t-14.5 18t-18 6.5t-22 1q-26 0 -44 -10.5t-30 -28.5t-19.5 -41t-13.5 -48q-2 -5 -6.5 -12.5t-5.5 -14.5q-4 -18 -8 -38t-7 -40q-5 -24 -12 -57t-12 -63q-1 -6 0.5 -15t1.5 -17 q0 -7 -1 -16t-1.5 -17.5t-1.5 -15t-1 -7.5q0 -35 12 -56.5t53 -21.5q16 0 26 1t32 13q6 3 17 18.5t16 27.5q3 6 6 15.5t5 17.5q5 17 12.5 34.5t14.5 32.5q2 4 2 10.5v9.5q0 10 -2 19t-24 13l-28 2q-4 -2 -9 -2t-15 -1q3 8 4 16t3 16q2 0 5 2.5t5 2.5q7 0 16.5 0.5t18.5 0.5 h15.5h8.5h14.5t19 -1t17.5 -2.5t11 -4.5q-5 -19 -6.5 -43.5t-11.5 -41.5q-2 -3 -4 -11t-4 -18t-5 -21t-6 -20q-8 -25 -24 -54.5t-39 -52.5q-3 -3 -12 -6.5t-17 -7.5q-12 -7 -20 -11t-22 -4q-3 0 -14.5 -0.5t-14.5 -0.5q-24 0 -47 4.5t-49 28.5q-3 3 -6.5 8t-5.5 11 q-2 5 -3 12t-3 13q-5 20 -7 45v21.5v11.5v5v2q2 30 4.5 51.5t7 46.5t12 59t18.5 87q2 9 9.5 28t15.5 35q14 29 27.5 59.5t38.5 53.5q10 9 23.5 15.5t25.5 10.5q5 2 11 4.5t12 3.5t13.5 1h15t13 -0.5t7.5 -0.5q18 0 39.5 -7t40.5 -26l4 -8t6.5 -13.5t6 -14.5t2.5 -11z" />
<glyph unicode="H" horiz-adv-x="366" d="M392 576l-34 -182t-35 -182q-4 -20 -8.5 -43.5t-8.5 -43.5q-4 -23 -10.5 -56t-14.5 -71q-4 -2 -11.5 -4.5t-10.5 -2.5t-9 1.5t-11 3.5l46 257v10t-1 13.5t-4.5 12t-10.5 5.5l-126 2q-3 0 -7.5 -4t-6.5 -9q-6 -22 -9.5 -46t-8.5 -47q-4 -21 -9 -46.5t-10 -52t-10 -51 t-9 -44.5q-3 0 -9 -4t-10 -4q-2 0 -4 2.5t-5 2.5t-2.5 -1t-2.5 -1t-10.5 2.5t-14.5 4.5q5 25 10.5 53t11 55.5t10 52t7.5 43.5q3 18 9 47.5t12 55.5q4 20 8 42t8 45q4 17 8 39.5t7 38.5q4 23 9 47.5t11 56.5q6 3 14 6t11 3t13.5 -3t18.5 -3l-41 -215q-3 -3 -0.5 -8.5 t7 -10.5t10.5 -8.5t11 -3.5h99q4 0 10.5 4t12 9.5t10 12t6.5 12.5q3 9 5 21t4 22q2 8 4.5 20t4.5 23q5 26 11.5 57.5t11.5 61.5q6 3 14.5 6t11.5 3q2 0 7.5 -2.5t9.5 -4.5z" />
<glyph unicode="I" horiz-adv-x="170" d="M183 582l-112 -582q-7 1 -18.5 -2t-13.5 -3q-3 0 -10.5 3t-13.5 4l110 578l13.5 4.5t11.5 2.5q3 0 14 -2.5t19 -2.5z" />
<glyph unicode="J" horiz-adv-x="277" d="M297 593q-23 -117 -43.5 -234t-45.5 -235q-3 -12 -11 -29.5t-14 -30.5q-5 -8 -14 -21.5t-19 -23.5q-4 -3 -10.5 -4.5t-13.5 -3.5q-11 -4 -23.5 -7t-26.5 -4q-2 -1 -8.5 -2t-10.5 -1q-3 0 -16.5 2.5t-23.5 4.5q1 11 3 21.5t4 19.5q8 0 18 2.5t13 2.5t9 -0.5t9 -0.5 q19 0 32 3t22 11.5t17 24t19 40.5q2 6 6.5 27.5t9.5 50.5t10.5 60.5t10.5 58.5q12 60 23.5 129.5t28.5 135.5q1 3 11 6.5t13 3.5t9.5 -2t11.5 -5z" />
<glyph unicode="K" horiz-adv-x="364" d="M390 581q-20 -33 -41.5 -68.5t-43 -70.5t-42 -67t-36.5 -59q-2 -2 -2 -5.5v-5.5l67 -291q-1 -5 -5.5 -7.5t-10.5 -4.5t-12 -2.5t-10 -0.5q-6 0 -15 -0.5t-17 7.5q-5 5 -6.5 19.5t-2.5 25.5q-2 17 -5.5 35t-6.5 35q-7 37 -14.5 72.5t-10.5 69.5q0 3 -3 9.5t-6 11.5h-4 q-16 0 -22 -3.5t-8.5 -11t-3 -20t-4.5 -30.5q-5 -21 -10.5 -51t-9.5 -54l-22 -110h-9t-10 -1q-4 -1 -8 -2.5t-8 -1.5q-3 0 -10.5 2.5t-12.5 4.5l110 577q5 2 13 4.5t11 2.5q2 0 13.5 -2.5t19.5 -2.5l-47 -236q2 -5 3 -9t0 -8q2 -2 5.5 -2h6.5q15 0 24 6.5t15.5 17t12 23 t12.5 25.5q22 38 48.5 87t61.5 90q1 1 6.5 3t12 4t12 3t7.5 1t8 -2.5t10 -6.5z" />
<glyph unicode="L" horiz-adv-x="239" d="M217 26q0 -6 -4 -15.5t-13 -9.5h-168q-2 0 -5.5 2t-5.5 3q23 116 44.5 231.5t44.5 231.5q5 23 11.5 55t11.5 61q12 8 15 9.5t13 1.5q14 0 15.5 -3t5.5 -5q2 0 3.5 -0.5t3.5 -0.5l-102 -528q-4 -9 5 -15.5t17 -14.5h101q3 0 4.5 -1.5t2.5 -1.5z" />
<glyph unicode="M" horiz-adv-x="486" d="M484 581q-1 -23 -4.5 -54t-6.5 -60q-2 -20 -5 -48t-5 -57q-1 -11 -2 -25t-2.5 -29t-3 -29t-2.5 -24q-2 -22 -4.5 -52.5t-5.5 -63.5t-6.5 -66.5t-6.5 -60.5q-2 -7 -12 -14q-3 -2 -7.5 -3t-8.5 -1q-8 0 -20 4t-12 17l37 317v61q-2 2 -2.5 1.5t-3.5 -0.5q-5 0 -12 -6.5 t-10 -15.5q-29 -99 -61.5 -186t-71.5 -175q0 -1 -4 -3t-8.5 -4.5t-8.5 -4t-5 -1.5q-3 0 -8.5 3t-11.5 5l-5 181v98q0 1 0.5 10t1.5 19.5t1.5 19.5t0.5 11q0 1 -0.5 7.5t-1 15t-1 17.5t-1.5 15q-2 3 -11 3q-5 0 -10 0.5t-12 -13.5q-2 -6 -5 -18t-6 -26.5t-6.5 -30t-6.5 -28.5 q-11 -46 -20.5 -91t-26.5 -98q-2 -3 -1.5 -12.5t-1.5 -17.5q-2 -6 -5.5 -15.5t-6.5 -17.5q-2 -4 -1.5 -9.5t-1.5 -10.5q-1 -5 -2 -9.5t-3 -7.5t-8.5 -5t-10.5 -2q-11 0 -20 7t-9 19q0 1 2.5 11t6.5 24.5t8.5 32.5t9.5 35q5 20 11.5 43t12.5 46q9 33 20 75t23.5 86t24.5 88 t23 81q3 9 7 19.5t7 19.5q8 5 20.5 8t15.5 3q13 0 17.5 -4t5.5 -11t0 -16.5t2 -20.5l2 -165q0 -5 0.5 -18.5t1 -29t0.5 -30v-21.5q0 -11 -0.5 -26t-0.5 -30q0 -9 -1 -18.5t-1 -17t2.5 -12.5t10.5 -5t15.5 10.5t13 23.5t9 24t3.5 12q7 21 17.5 51t18.5 54q4 12 9.5 26.5 t11.5 31.5q16 41 34 87.5t45 94.5q1 1 5.5 3t10 3.5t10 2.5t6.5 1q3 0 10 -3t14 -5z" />
<glyph unicode="N" horiz-adv-x="370" d="M396 577q-6 -34 -12 -69t-13 -70q-3 -13 -7 -34.5t-9 -47t-10 -51.5t-9 -48q-3 -16 -7 -37.5t-8.5 -45.5l-9 -48t-8.5 -43q-4 -16 -8 -39t-9 -43q-4 -2 -12 -5t-12 -3q-2 0 -13 3t-19 7q-2 23 -6 45t-8 45q-7 42 -15.5 91.5t-14.5 100.5q-5 35 -13 70.5t-16 72.5h-6 q-4 -3 -6 -10q-5 -32 -7.5 -49.5t-3.5 -29t-2 -20t-3 -21.5t-7 -36.5t-10 -50l-10 -53t-6 -46.5q-1 -13 -4.5 -25t-6.5 -32q-1 -10 -3 -21t-6 -20t-11.5 -15t-19.5 -6q-3 0 -11 2.5t-14 4.5l110 576q9 2 21 5t16 3q2 0 10 -1.5t14 -4.5q5 -18 8.5 -37t6.5 -37 q8 -57 15.5 -112.5t18.5 -112.5l12 -60t14 -62q2 0 2 1.5t1 3.5q6 24 11.5 47.5t8.5 47.5q2 8 1 25t2 27q2 5 8 17t9 23q5 14 7 28t5 28q7 35 16 81.5t17 89.5q5 2 12 5t11 3q8 0 19 -7z" />
<glyph unicode="O" horiz-adv-x="356" d="M376 468q0 -2 -1.5 -16t-3.5 -25q-1 -6 0.5 -14.5t0.5 -15.5q-8 -51 -18.5 -102t-21.5 -102q-1 -3 -5 -10.5t-6 -12.5q-6 -20 -12.5 -40.5t-16 -40.5t-23.5 -38t-35 -32q-3 -2 -8 -7t-9 -7t-13 -4.5t-17 -5.5q-19 -6 -28.5 -6h-21.5q-14 0 -25.5 0.5t-22.5 4.5t-23 13 t-26 26q-3 4 -4.5 9.5t-3.5 10.5q-3 10 -8 25.5t-5 18.5v43q0 24 4 56t10 66t13 68t14 64q1 4 5.5 18t11.5 31.5t14.5 35.5t13.5 31q3 6 8.5 14t11.5 16.5t12 16t9 12.5q4 5 14 9.5t18 9.5q19 11 42 16q3 0 7 1t7 1t16.5 -0.5t46.5 -1.5q23 0 38 -15t24 -36t13 -44t4 -41z M307 473q0 16 -0.5 31t-6.5 26.5t-19 18.5t-38 7t-42.5 -10.5t-35.5 -39.5q-15 -24 -22 -50t-11 -51q-2 -6 -5.5 -12.5t-5.5 -12.5q-8 -37 -15.5 -74t-10.5 -74q-2 -15 -3 -30t-2 -29q-1 -7 -2 -15t-1 -10v-39q0 -4 1 -21.5t7 -27.5q8 -14 21 -17t22 -5l19 1q8 1 16 2.5 t14 3.5q16 4 27 16.5t18 27.5t11.5 30.5t7.5 26.5t7 22t6 20q5 25 11 57t11.5 62t9.5 53.5t6 31.5q1 10 2 23t2 25.5t1 21.5v11z" />
<glyph unicode="P" horiz-adv-x="332" d="M356 498q0 -2 -0.5 -8t-1.5 -14t-2.5 -17t-2.5 -16q-4 -18 -9 -42t-15.5 -47.5t-28 -42t-44.5 -26.5q-6 -2 -13 -4.5t-15 -4.5q-20 -3 -44.5 -4.5t-44.5 -6.5q-3 -1 -6 -3t-4 -5q-2 -7 -5 -24t-5 -28q-5 -20 -9 -44.5t-9 -50.5q-5 -25 -11 -54t-11 -56q-5 -7 -12 -7h-13 h-10.5t-11.5 2q-2 1 -5 3.5t-5 2.5l111 580q9 0 21.5 0.5t24 1t20 1t10.5 0.5q3 0 10.5 1t11.5 1q1 0 9.5 0.5t18 1t17.5 1t10 0.5t5.5 -1t5.5 -2q18 -2 30 -12t19.5 -23.5t10.5 -28t3 -24.5zM286 448q0 4 -1 20t-1 26q-1 18 -7.5 29t-16.5 17t-23 7.5t-26 1.5 q-2 0 -6.5 0.5t-9.5 -0.5t-9 -3t-5 -7q-4 -18 -7.5 -38.5t-7.5 -40t-7 -37.5t-6 -31q-1 -5 -2.5 -13.5l-3 -17t-2.5 -15.5t-1 -8q0 -14 7 -16.5t20 -2.5q17 0 36 5t30 11q7 4 15 16t14.5 26t11 26t6.5 17q2 6 2 16v12z" />
<glyph unicode="Q" horiz-adv-x="351" d="M374 473q0 -2 -0.5 -11t-1.5 -22t-2 -26.5t-2 -23.5q-1 -5 -2.5 -10.5t-2.5 -11.5q0 -1 -2 -3t-2 -5q-1 -17 -2.5 -34t-5.5 -34q-2 -14 -6 -30t-7 -30q-2 -8 -4 -19t-4 -20q-2 -5 -3.5 -12t-3.5 -13q-4 -11 -10 -26.5t-12 -30.5q-7 -15 -18 -34t-11 -32q0 -8 4 -17 t8.5 -17t8.5 -14t4 -9t-4.5 -10.5t-9.5 -11.5q-4 -2 -11 -2q-13 0 -16.5 6t-5.5 13.5t-7 13.5t-20 6q-17 0 -32.5 -6t-36.5 -8l-38 -1q-10 2 -17 2q-23 1 -38 15.5t-24 35t-13 42.5t-4 38q0 21 1 45t3 44q0 5 3 18.5t6 30t6 34t5 29.5q7 51 24 106t43 99q5 8 21 25.5 t30 29.5q4 3 9.5 4t10.5 4q11 6 18 8.5t12 3.5t9.5 1t10.5 1q8 1 22.5 0.5t17.5 -0.5t12.5 -0.5t16.5 -3.5q7 -2 16 -6.5t16 -9.5q10 -8 17 -18.5t11.5 -22.5t7 -23.5t3.5 -20.5q1 -6 1.5 -15t0.5 -11zM307 468q0 6 -0.5 17.5t-3 23.5t-6.5 22.5t-11 13.5q-9 5 -15 7 t-10 2.5t-8 0t-10 -0.5q-24 0 -39.5 -5t-26.5 -17t-19.5 -32t-17.5 -51q-2 -8 -3.5 -15t-3.5 -15l-3 -6l-3 -6q-7 -36 -14 -68.5t-13 -64t-9.5 -65t-3.5 -71.5q0 -19 1 -41.5t6 -36.5t17 -17.5t18 -3.5h30q10 0 24 5.5t14 20.5q0 5 -2 9q-3 7 -7 16t-8 17.5t-7 14.5t-3 8 q0 5 7.5 11.5t12.5 6.5q10 0 31 -22h7q11 23 24 44.5t19 44.5q8 29 13 52t8 42.5t4.5 38t4.5 39.5q1 9 2 22l2 26t1.5 22t0.5 11z" />
<glyph unicode="R" horiz-adv-x="327" d="M349 497q0 -3 -2 -15.5t-4 -21.5q-5 -42 -21 -84t-61 -74q-5 -3 -11.5 -6.5l-13 -7t-10.5 -7.5t-3 -9l51 -266q-4 -5 -14.5 -10t-16.5 -5q-2 0 -12 2.5t-18 6.5q-8 36 -15 73t-15 74q-4 17 -7 39t-7 35q-2 3 -4.5 5.5l-4.5 4.5q-1 1 -1 4v5q-2 5 -7 13t-12 8t-12 -5 q-13 -65 -25.5 -129.5t-25.5 -130.5h-9t-10 -1q-4 0 -7.5 -2t-7.5 -2q-3 0 -10 2.5t-14 4.5q5 29 11.5 60t11.5 57q7 38 18 93t23 117.5t24.5 127.5t22.5 122q1 7 13.5 10.5t28 5t31.5 2t24 0.5h7t14 -0.5t16.5 -1.5t15.5 -2q5 -1 11.5 -5.5t12.5 -8.5q6 -5 14 -9t12 -10 q19 -32 19 -59zM284 453q0 4 0.5 12.5t-1.5 29.5q-4 32 -20 41.5t-48 9.5q-3 0 -11 0.5t-13 -1.5q-2 -1 -5.5 -4t-4.5 -6q-8 -35 -15 -74.5t-13 -71.5q-2 -7 -3.5 -16t-2.5 -17t-2 -14.5t-1 -7.5q0 -17 7.5 -18.5t21.5 -1.5h8t11 1q9 2 21 5.5t16 7.5q25 29 40 61.5t15 63.5 z" />
<glyph unicode="S" horiz-adv-x="330" d="M328 568q0 -10 -10 -14.5t-16 -4.5q-2 0 -9 1t-15.5 1.5t-16 1.5t-8.5 1q-27 0 -47 -11t-32.5 -28.5t-19 -38t-6.5 -39.5t7 -39.5t23 -43.5q5 -8 13.5 -15t13.5 -15q11 -14 20.5 -29t19.5 -29q5 -8 12.5 -16.5t9.5 -14.5q5 -15 6 -30.5t1 -30.5q0 -44 -22 -90.5 t-76 -80.5q-2 -1 -8 -3l-13.5 -4.5t-15.5 -4.5t-14 -3q-5 -1 -14.5 -0.5t-12.5 0.5t-12.5 -1t-15.5 1q-11 2 -24 7.5t-23 10.5q-2 2 -3.5 6.5t-1.5 7.5q0 7 5.5 19t13.5 12q2 0 4.5 -1t6.5 -1h9q14 -4 19.5 -6t8.5 -3t6.5 -1h14.5q8 0 18 -0.5t27 7.5q10 5 20 15t17.5 22 t13 24t7.5 20q2 7 2 18.5v14.5q0 13 -1 23.5t-3.5 20t-8 19.5t-14.5 23q-3 4 -9.5 10.5t-14 14.5l-15 16t-12.5 14q-22 28 -35.5 58t-13.5 59q0 17 4.5 38.5t14 43t23.5 41.5t32 33q33 23 59 27.5t55 4.5h11t16 -1q4 0 9 -4t9.5 -10t7.5 -12.5t3 -10.5z" />
<glyph unicode="T" horiz-adv-x="287" d="M312 577q-1 -8 -3 -17.5t-3 -18.5l-88 2q-1 0 -4.5 -2.5t-7.5 -6.5t-7 -8t-4 -8q-20 -87 -35.5 -175t-32.5 -176q-2 -9 -4 -21t-4 -23q-5 -27 -10 -60t-15 -63q-1 -4 -11 -6.5t-13 -2.5q-2 0 -9 2.5t-13 3.5q-1 0 -1 1q-1 0 -1 2l100 524q2 2 -0.5 7t-9.5 10h-87 q2 4 0.5 8.5t-1.5 7.5q0 2 3.5 11t8.5 12q4 2 11.5 3t10.5 1h208q3 0 10 -2t12 -5z" />
<glyph unicode="U" horiz-adv-x="355" d="M381 589q-22 -108 -42 -215t-40 -216q-2 -6 0 -15.5t0 -17.5q-2 -12 -9.5 -36t-20.5 -44q-11 -17 -28 -27.5t-34 -15.5q-5 -2 -12 -5t-13 -4q-8 -1 -17.5 -2t-18.5 -1.5t-16 -1t-8 -0.5q-3 0 -11 -1t-14 1q-5 1 -11 4t-13 5q-2 1 -6 2.5t-6 2.5q-10 4 -17.5 14.5t-12 23 t-6.5 25t-2 19.5q0 1 3.5 23t10 58.5t15.5 84t19 100.5q4 22 9.5 52t11.5 62t12.5 64t13.5 58q1 4 8 7.5t12 5.5h8q6 0 9.5 -1.5t15.5 -10.5q-3 -20 -10.5 -61.5t-17 -93t-19.5 -106.5t-18.5 -102t-14 -81t-5.5 -42q0 -39 16.5 -48.5t47.5 -9.5q20 0 34 2t24.5 10.5t18.5 25 t15 46.5l7.5 37.5t13 66t16.5 85t18 94.5t18 94.5t16 84.5q7 1 17 3t13 2t9 -1.5t11 -3.5z" />
<glyph unicode="V" horiz-adv-x="338" d="M309 577q-12 -28 -26 -64t-28 -73q-10 -26 -22.5 -59t-26.5 -67.5t-27.5 -68.5t-25.5 -62q-16 -40 -33.5 -84.5t-36.5 -92.5q-7 -3 -17 -6.5t-14 -3.5q-2 0 -9.5 3l-12.5 5q-2 11 -2.5 23t-1.5 23l-2 525q8 3 17.5 7t14.5 4q2 0 10.5 -3t15.5 -6l-1 -194l-7 -159 q0 -2 1.5 -11t3 -21.5t3 -26.5t2.5 -24q17 16 27 38.5t15 38.5q5 15 12 36.5t13 40.5q5 12 10 26t10 29q5 14 10.5 29t13.5 33q14 36 30 78.5t30 83.5q5 3 16.5 7.5t15.5 4.5q3 0 10 -3.5t12 -5.5z" />
<glyph unicode="W" horiz-adv-x="473" d="M507 572q-11 -26 -20.5 -53t-18.5 -53q-33 -90 -72 -193t-77 -202q-6 -16 -13 -37.5t-15 -34.5q-2 -2 -13 -5.5t-14 -3.5t-10.5 3t-13.5 6l3 171l11 168l-2 86l-3 3h-6q-3 -5 -4.5 -9.5t-4.5 -9.5q-3 -8 -10 -18.5t-12 -21.5q-7 -17 -11 -35t-10 -35q-9 -28 -20.5 -60 t-22.5 -62q-6 -17 -14.5 -37.5t-16.5 -40.5q-6 -16 -14.5 -44.5t-21.5 -51.5q-1 -2 -5.5 -4t-9.5 -3.5l-10 -3t-6 -1.5q-3 0 -11 3t-12 4l6 553q0 8 3 20q7 3 17 7t13 4t11 -3.5t15 -7.5v-72q0 -3 -1 -19.5t-3 -28.5l-7 -295q11 17 25.5 39.5t18.5 40.5q1 4 5 14.5t9 23.5 l10 26t8 23q5 12 10.5 28t11.5 33q14 38 32.5 89.5t37.5 98.5q5 3 14.5 6.5t12.5 3.5q2 0 9.5 -3.5t14.5 -7.5l-10 -329q0 -2 1 -11t1 -15q1 -2 2 -2t1 -3v-58v-1q0 -1 3 -1q8 0 16 18t16 35q2 5 2 12.5t2 12.5q3 9 10 29t15 45t17 51t16 47q12 35 24.5 78t35.5 92 q1 1 5.5 3t10.5 4t11 3t7 1q3 0 9.5 -3.5t11.5 -5.5z" />
<glyph unicode="X" horiz-adv-x="367" d="M393 574q-39 -68 -80 -139.5t-76 -134.5q-1 -2 -1 -9l52 -288q-8 -2 -13.5 -7t-15.5 -5q-3 0 -9.5 1t-10.5 1q-2 1 -6.5 2.5t-5.5 3.5q-3 10 -7 28t-7 37.5t-5.5 37t-3.5 27.5q-1 7 -1 18.5t-1 19.5q0 4 0.5 10.5t-1.5 11.5q-6 11 -17 11q-10 0 -13 -5.5t-14 -22.5 q-3 -5 -6.5 -16t-8.5 -19q-8 -17 -15.5 -34.5t-15.5 -35.5t-19 -35.5t-26 -32.5q-1 -2 -6.5 -3.5t-11.5 -2.5t-11 -2t-6 -1q-3 0 -9.5 3t-11.5 6q42 72 82 142.5t81 142.5q1 2 0.5 4.5t-0.5 4.5l-46 276q12 7 16.5 10.5t12.5 3.5q12 0 19 -4t9 -8q3 -5 5.5 -12.5t3.5 -12.5 q0 -20 2.5 -36t7.5 -36t4.5 -41t1.5 -41q0 -5 6 -10.5t11 -5.5q6 0 9.5 10t8.5 18q4 7 13 17.5t14 21.5q11 25 19.5 43t16 32.5t14.5 26.5t16 24q3 5 16 8.5t21 3.5q3 0 9 -2t10 -5z" />
<glyph unicode="Y" horiz-adv-x="293" d="M314 574q-21 -42 -46 -87.5t-48.5 -90.5t-43 -86t-30.5 -73q-20 -58 -27.5 -119t-18.5 -121q-5 -2 -14.5 -4.5t-12.5 -2.5t-10.5 2.5t-14.5 2.5q-2 0 -3.5 0.5t-3.5 -0.5l44 244l-58 329q1 1 5 4t9 5t9.5 4t6.5 2q3 0 13.5 -3t18.5 -5q1 -14 3.5 -31t5.5 -34.5t5 -34 t4 -29.5q2 -15 4 -32t4 -37q2 -15 1 -29.5t7 -29.5q6 5 13.5 13.5t13.5 16.5q6 6 13 20q9 19 18.5 44t20.5 52t23.5 54t27.5 51q2 3 5 4.5l5 2.5q6 2 15.5 4.5t12.5 2.5t10 -3t13 -6z" />
<glyph unicode="Z" horiz-adv-x="360" d="M386 579q-25 -46 -58.5 -106.5t-70 -128t-75 -136.5t-72.5 -132q-3 -5 -4.5 -10t-1.5 -8q0 -8 8.5 -19t16.5 -11h106q3 0 16 2.5t17 2.5q10 0 13 -3.5t3 -11.5q0 -13 -9 -18.5t-18 -5.5h-227q-3 0 -6.5 3t-5.5 4q34 64 72 135.5t75.5 141t71.5 132.5t60 111q2 3 2 11 q0 5 -0.5 7t-8.5 11h-156v1q0 1 2 3q-2 4 -5 7.5t-3 6.5q0 6 5 10t12 6.5t13.5 3t9.5 0.5h202q2 0 7 -3.5t9 -5.5z" />
<glyph unicode="[" />
<glyph unicode="\" />
<glyph unicode="]" />
<glyph unicode="^" />
<glyph unicode="_" />
<glyph unicode="`" />
<glyph unicode="a" horiz-adv-x="525" d="M468 8q-5 -2 -12 -4t-14.5 -4t-13.5 -3.5t-8 -1.5q-5 0 -18 4t-23 7v63q0 3 -1.5 13.5t-3.5 16.5q-2 4 -7 7t-11 5l-184 1q-10 -6 -18.5 -18t-17 -27t-17.5 -31t-19 -28q-2 -2 -8.5 -4t-15 -4t-15.5 -3.5t-9 -1.5q-4 0 -13 3.5t-17 5.5q53 88 103 175.5t101 175.5 q30 50 63 109.5t77 111.5q1 2 8.5 4t15.5 3.5t15.5 2.5t9.5 1q5 0 13 -1.5t15 -3.5q5 -28 7.5 -56.5t4.5 -55.5q1 -10 2 -24t2 -27t1.5 -23t0.5 -11v-54zM386 164v294q-6 6 -15 6q-12 0 -21.5 -11t-17 -24t-12 -24t-4.5 -12q-14 -25 -27.5 -50.5t-26.5 -50.5q-6 -12 -15 -29 t-15 -28q-12 -22 -24.5 -35t-12.5 -30q0 -12 8 -17.5t20 -8t25.5 -2.5h25.5q5 0 22 1t22 1q16 0 34 3t34 17z" />
<glyph unicode="b" horiz-adv-x="472" d="M496 483q0 -14 -3.5 -29.5t-9.5 -29.5q-2 -3 -6 -7t-7 -8q-8 -12 -18 -30.5t-24 -32.5q-9 -10 -26 -23t-31 -22q-2 -2 -8 -3t-11 -3q11 -11 25.5 -20.5t24.5 -19.5q7 -7 14.5 -22.5t7.5 -27.5q0 -21 -9.5 -52t-29.5 -60.5t-51 -53.5t-74 -32q-5 -1 -11.5 -3t-13.5 -4 t-13 -3.5t-8 -1.5h-89q-22 0 -48 1t-51 10l161 581l187 9q20 0 39 -3.5t35 -12.5q13 -8 20 -18t11 -21t7.5 -21.5t8.5 -19.5q2 -2 1.5 -8t-0.5 -9zM398 466q0 3 -1 16t-3 23q-2 6 -3 13t-6 12q-16 14 -37 20t-53 6q-9 0 -20.5 -0.5t-19.5 -10.5q-9 -11 -19.5 -36 t-19.5 -53.5t-14.5 -56t-5.5 -43.5q0 -8 -0.5 -14.5t2.5 -11t11.5 -6.5t26.5 -2q28 0 48.5 5t43.5 12q4 2 9 6t7 6q18 24 28.5 39.5t16 27.5t7.5 23t2 25zM331 185q0 5 -1.5 17t-5.5 25t-11 24t-19 15q-17 6 -42.5 9.5t-39.5 3.5q-5 0 -8.5 0.5t-6.5 -1.5q-18 -8 -29 -25 t-18.5 -38t-12.5 -43.5t-11 -43.5q-2 -6 -3.5 -13.5t-2 -15t-1 -13t-0.5 -6.5q0 -5 -1 -12t1.5 -13t9.5 -10.5t22 -4.5q9 0 24.5 1.5t30.5 4t27.5 5.5t17.5 5q20 10 32.5 22t20 24t11.5 24.5t7 24.5q2 8 5.5 20t3.5 14z" />
<glyph unicode="c" horiz-adv-x="445" d="M477 586q0 -3 -4 -8.5t-9.5 -10t-11 -8t-9.5 -3.5h-11.5t-20 0.5t-20 0.5h-12.5q-4 0 -7 -1.5t-7 -1.5q-21 0 -45 -11.5t-46 -27.5t-39 -35t-23 -34q-2 -4 -5 -10.5t-5 -11.5q-5 -8 -11 -17.5t-9 -20.5q-2 -8 -2 -17.5t-4 -17.5q-5 -13 -15.5 -25t-16.5 -25 q-1 -3 -0.5 -11.5t1.5 -16.5q0 -12 -1 -28t-2.5 -30.5t-2.5 -25.5t-1 -12q0 -29 11.5 -59.5t53.5 -56.5q2 -2 12 -4t23.5 -4.5t27 -4t21.5 -1.5h10.5t15.5 2q2 -5 5 -11.5t3 -9.5q0 -16 -18 -27q-6 -3 -15 -4.5t-19 -2t-20.5 -0.5h-17.5q-17 0 -30.5 -0.5t-28.5 1.5t-33.5 8 t-44.5 20q-8 3 -14.5 11.5t-11.5 16.5q-17 25 -25 53.5t-8 55.5q0 17 4.5 43t11 52.5t13.5 48.5t11 31q5 10 5 21.5t6 23.5t15.5 31.5t23 42.5t33 47t46.5 46q13 10 32 20t40 18t42.5 14.5t39.5 10.5q5 1 13 1.5t16 0.5t14.5 -0.5t9.5 -0.5q2 0 9 -1t16.5 -2.5t19 -3.5 t15.5 -3q6 -8 6 -15z" />
<glyph unicode="d" horiz-adv-x="521" d="M541 455q-1 -25 -1 -39v-21t0.5 -8.5l0.5 -1.5q-8 -32 -20.5 -77.5t-25.5 -86.5q-1 -3 -6 -8t-7 -10q-9 -18 -18 -37t-20.5 -38t-27.5 -37t-40 -34q-1 0 -2 -3t-4 -5q-18 -10 -44 -19t-54 -16.5t-55.5 -12t-49.5 -4.5q-2 0 -13 0.5t-23.5 0.5t-23.5 0.5t-13 0.5 q-5 0 -14.5 0.5t-14.5 0.5t-18 2.5t-24 6.5q31 113 63 226.5t63 227.5q7 23 15.5 56.5t17.5 68.5q1 2 3 5t4 5q5 4 16 5t16 3q10 3 17.5 5.5t14 3.5t13.5 1.5t17 0.5q2 0 16 -1t31 -2.5t34.5 -3.5t27.5 -3q4 -1 7 -4t7 -5q23 -8 47.5 -18t41.5 -23q27 -21 36 -49.5t10 -52.5 zM441 448q0 12 -1.5 28t-8 31t-21 26.5t-40.5 15.5q-5 1 -12 3t-12 3q-11 2 -27 2h-20h-12.5t-15 -1t-13 -4t-6.5 -9q-5 -20 -11.5 -45t-14 -49.5t-14.5 -47.5t-11 -39q-5 -22 -13 -50t-13 -45q-6 -21 -14.5 -53.5t-17 -62.5t-14 -52t-5.5 -23q0 -6 2 -15t18 -17l31 2 q13 0 24.5 1t19.5 3q12 2 26 4t22 5q29 12 47 27.5t30.5 32.5t22 34.5t20.5 34.5q5 7 3.5 16t0.5 12q14 27 21.5 55.5t15.5 49.5q2 5 4.5 10.5t3.5 8.5q1 5 -2 11.5t-2 9.5q1 12 2.5 26.5t3 27.5t2.5 22t1 11z" />
<glyph unicode="e" horiz-adv-x="456" d="M488 584l-3.5 -17.5t-3.5 -13.5h-183q-12 0 -18.5 -3.5t-10 -9t-5 -11.5t-2.5 -12q-6 -21 -15 -50.5t-16.5 -56t-13 -46t-5.5 -21.5v-5.5t1 -5.5q1 -3 12.5 -11t19.5 -8h105q5 0 12 -1t12 -2l3 2q-1 -9 -4 -19t-2 -17h-164q-4 -2 -9 -5t-7 -8q-9 -25 -19 -59.5t-19 -66.5 t-14.5 -55t-5.5 -24v-11t11 -9h103q2 0 11.5 -0.5t22 -2l25 -3t21.5 -2.5q8 -2 10.5 -7t2.5 -8q0 -11 -15 -14t-25 -3h-247q-4 0 -8 1.5t-8 3.5l159 578q8 1 17.5 4.5t14.5 3.5h240q5 0 10 -1.5t10 -3.5z" />
<glyph unicode="f" horiz-adv-x="447" d="M479 585q-2 -8 -4.5 -16t-2.5 -15l-176 -1q-5 0 -16 -3.5t-14 -11.5q-5 -17 -10 -35.5t-11 -37.5q-4 -14 -9.5 -33.5t-10.5 -37.5t-8.5 -31t-3.5 -14q0 -10 10 -17t27 -15h133q-2 -11 -3.5 -19t-3.5 -16h-166q-4 -2 -8 -4.5t-5 -5.5q-20 -66 -38 -133.5t-38 -135.5 q-5 0 -12.5 -1t-15 -1.5t-14 -1.5t-8.5 -1q-4 0 -15.5 2.5t-20.5 4.5q7 26 15 54.5t15 52.5q8 25 15.5 54.5t15.5 58.5q5 17 12.5 45.5t13.5 49.5q5 16 11.5 40t12.5 47q11 38 23.5 81.5t24.5 91.5q4 2 6.5 4.5t6.5 2.5q5 1 11 1.5t11 0.5h242q6 -2 8 -4z" />
<glyph unicode="g" horiz-adv-x="505" d="M541 529q0 -2 -4 -11.5t-6 -16.5q-11 -2 -25.5 -6t-19.5 -4q-4 0 -16.5 3t-13.5 8q-9 23 -18.5 35.5t-21.5 18t-26 6.5t-31 1q-38 0 -63.5 -10.5t-43 -28.5t-29 -41t-19.5 -48q-2 -5 -8.5 -12.5t-8.5 -14.5q-5 -18 -11 -38t-11 -40q-6 -24 -16 -57t-18 -63q-1 -6 1 -15 t2 -17q0 -7 -1.5 -16t-3 -17.5t-2.5 -15t-1 -7.5q0 -18 3.5 -32t14 -24.5t29 -16t48.5 -5.5h19.5t17.5 1t19.5 4t26.5 9q4 1 10.5 6.5t13.5 12t13 14t10 13.5t8.5 15.5t7.5 17.5q7 17 17.5 34.5t21.5 32.5q3 4 3 10.5v9.5q0 5 0.5 10t-2.5 9t-11 7.5t-24 5.5l-41 2 q-5 -2 -12.5 -2t-21.5 -1q4 8 6 16l4 16q3 0 7 2.5t8 2.5q10 0 23.5 0.5t26 0.5h22.5h12h21t27 -1t25.5 -2.5t16.5 -4.5q-7 -19 -9.5 -43.5t-16.5 -41.5q-2 -3 -5 -11t-7 -18t-8 -21t-8 -20q-12 -25 -34.5 -54.5t-56.5 -52.5q-5 -3 -17.5 -6.5t-23.5 -7.5q-18 -7 -29 -11 t-31 -4q-5 0 -21 -0.5t-21 -0.5q-35 0 -68 4.5t-71 28.5q-4 3 -8.5 8t-8.5 11q-3 5 -4.5 12t-3.5 13q-5 11 -7.5 22.5t-4.5 22.5q1 14 1 21.5v11.5t-0.5 5t-0.5 2q3 30 7 51.5t10.5 46.5t17 59t26.5 87q3 9 14.5 28t22.5 35q10 15 19 30t20 29.5t24.5 28t31.5 25.5 q14 9 33.5 15.5t36.5 10.5q6 2 15.5 4.5t18.5 3.5q8 1 19 1h21.5t18.5 -0.5t10 -0.5q26 0 57.5 -7t58.5 -26q2 -2 6.5 -8t9 -13.5t8 -14.5t3.5 -11z" />
<glyph unicode="h" horiz-adv-x="527" d="M564 576q-23 -91 -48 -182t-51 -182q-5 -20 -12 -43.5t-12 -43.5q-6 -23 -15.5 -56t-20.5 -71q-6 -2 -17 -4.5t-16 -2.5q-4 0 -12.5 1.5t-15.5 3.5l67 257q-1 3 -1 10t-1.5 13.5t-6 12t-14.5 5.5l-182 2q-5 0 -11.5 -4t-8.5 -9q-9 -22 -14 -46t-12 -47q-6 -21 -13 -46.5 t-14.5 -52t-14.5 -51t-13 -44.5q-5 0 -13.5 -4t-13.5 -4q-4 0 -6 2.5t-7 2.5t-3.5 -1t-3.5 -1t-16 2.5t-20 4.5q7 25 15 53t15.5 55.5t14 52t11.5 43.5q5 18 13.5 47.5t16.5 55.5q5 20 11 42t13 45q5 17 10 39.5t10 38.5q6 23 13.5 47.5t15.5 56.5q9 3 20.5 6t16.5 3t20 -3 t26 -3l-60 -215q-3 -3 0 -8.5t10 -10.5t15 -8.5t15 -3.5h144q6 0 14.5 4t17 9.5t15 12t9.5 12.5q4 9 7.5 21t5.5 22q2 8 5.5 20t6.5 23q7 26 16.5 57.5t17.5 61.5q8 3 20 6t16 3t12 -2.5t13 -4.5z" />
<glyph unicode="i" horiz-adv-x="245" d="M263 582l-161 -582q-5 0 -12 -0.5t-14 -1.5t-12.5 -2t-7.5 -1q-4 0 -15 3t-20 4l159 578q9 2 19.5 4.5t15.5 2.5t21 -2.5t27 -2.5z" />
<glyph unicode="j" horiz-adv-x="399" d="M427 593q-33 -117 -62 -234t-66 -235q-4 -12 -15.5 -29.5t-20.5 -30.5q-7 -8 -20 -21.5t-28 -23.5q-5 -3 -14.5 -4.5t-19.5 -3.5q-16 -4 -34 -7t-38 -4q-3 -1 -12 -2t-14 -1q-2 0 -9 0.5t-15.5 1.5t-18 2.5t-16.5 2.5q2 11 5 21.5t5 19.5q11 0 25.5 2.5t19.5 2.5 q4 0 12.5 -0.5t13.5 -0.5q28 0 46 3t31.5 11.5t25 24t26.5 40.5q4 6 10 27.5t13.5 50.5t15.5 60.5t16 58.5q17 60 34 129.5t40 135.5q1 1 5.5 3t10.5 3.5t11 2.5t7 1q5 0 13.5 -2t16.5 -5z" />
<glyph unicode="k" horiz-adv-x="524" d="M562 581q-29 -33 -60.5 -68.5t-62 -70.5t-59.5 -67t-53 -59q-3 -5 -3 -11l96 -291q-1 -5 -7.5 -7.5t-15 -4.5t-17 -2.5t-14.5 -0.5q-9 0 -22 -0.5t-24 7.5q-8 5 -10 19.5t-3 25.5q-3 17 -7.5 35t-9.5 35q-10 37 -21 72.5t-15 69.5q-1 3 -5 9.5t-8 11.5h-6q-23 0 -32 -3.5 t-12 -11t-4.5 -20t-7.5 -30.5q-7 -21 -15 -51t-13 -54l-31 -110h-12.5t-14.5 -1q-5 -1 -11.5 -2.5t-11.5 -1.5t-15.5 2.5t-18.5 4.5l159 577q8 2 18.5 4.5t15.5 2.5q4 0 20.5 -2.5t26.5 -2.5l-67 -236q5 -10 5 -17q3 -2 7.5 -2h9.5q22 0 35 6.5t22 17t16.5 23t18.5 25.5 q32 38 69.5 87t88.5 90q1 1 9 3t17 4t17.5 3t10.5 1q5 0 13.5 -2.5t13.5 -6.5z" />
<glyph unicode="l" horiz-adv-x="344" d="M313 26q-1 -6 -6.5 -15.5t-18.5 -9.5h-242q-4 0 -8 2t-8 3q33 116 64.5 231.5t63.5 231.5q6 23 16 55t18 61q17 7 21.5 9t18.5 2q19 0 22 -3t8 -5q2 0 5 -0.5t5 -0.5l-146 -528q-3 -5 -0.5 -8.5t7.5 -7t11.5 -7t11.5 -7.5h146q5 0 7 -1.5t4 -1.5z" />
<glyph unicode="m" horiz-adv-x="699" d="M696 581q-1 -23 -6 -54t-9 -60q-2 -20 -6.5 -48t-7.5 -57q-1 -11 -3 -25t-4 -29t-4.5 -29t-3.5 -24q-3 -22 -7 -52.5t-8 -63.5t-9 -66.5t-9 -60.5q-1 -3 -6 -7t-11 -7q-4 -2 -11 -3t-12 -1t-13 1t-15.5 3t-12.5 6.5t-5 10.5l53 317v61q-1 1 -8 1q-8 0 -18 -6.5t-14 -15.5 q-43 -99 -89 -186t-102 -175q-1 -1 -6 -3t-12 -4.5t-13 -4t-8 -1.5q-4 0 -11.5 3t-15.5 5l-8 181v98q0 1 1 10t1.5 19.5t1.5 19.5t1 11q0 1 -0.5 7.5t-1 15t-2 17.5l-2.5 15q-3 3 -16 3q-6 0 -13.5 0.5t-16.5 -13.5q-4 -6 -8.5 -18t-9 -26.5t-9 -30t-8.5 -28.5 q-15 -46 -29.5 -91t-38.5 -98q-2 -3 -2 -12.5t-2 -17.5q-2 -6 -7.5 -15.5t-10.5 -17.5q-2 -4 -2 -9.5t-2 -10.5t-2.5 -9.5t-4.5 -7.5t-13 -5t-14 -2q-17 0 -29.5 7t-12.5 19q0 1 3.5 11t9.5 24.5t13 32.5t13 35q8 20 17 43t17 46q12 33 28.5 75t34.5 86l36 88t33 81 q4 9 9.5 19.5t9.5 19.5q6 2 14 4t15.5 3.5t14 2.5t8.5 1q19 0 25.5 -4t8 -11t0.5 -16.5t2 -20.5l3 -165q1 -5 1.5 -18.5t1.5 -29t1 -30v-21.5q-1 -11 -2 -26t0 -30q0 -9 -1.5 -18.5t-1.5 -17t3.5 -12.5t15.5 -5t22.5 10.5t19 23.5t13 24t4.5 12q10 21 24.5 51t26.5 54 q5 12 13.5 26.5t17.5 31.5q23 41 49 87.5t64 94.5q1 1 7.5 3t14.5 3.5t15 2.5t9 1q5 0 15 -3t19 -5z" />
<glyph unicode="n" horiz-adv-x="533" d="M571 577q-9 -34 -18 -69t-19 -70q-3 -13 -9 -34.5t-13 -47t-14.5 -51.5t-13.5 -48q-4 -16 -10 -37.5t-12.5 -45.5l-13 -48t-12.5 -43q-5 -16 -11.5 -39t-13.5 -43q-5 -2 -16.5 -5t-16.5 -3t-20 3t-26 7q-5 23 -10.5 45t-10.5 45q-10 42 -22.5 91.5t-20.5 100.5 q-6 35 -17.5 70.5t-24.5 72.5h-9q-6 -4 -8 -10q-8 -32 -11.5 -49.5t-5 -29t-2.5 -20t-4 -21.5t-10 -36.5t-14.5 -50t-14.5 -53t-9 -46.5q-2 -13 -6.5 -25t-8.5 -32q-2 -10 -5 -21t-9 -20t-16.5 -15t-27.5 -6q-5 0 -16 2.5t-20 4.5l158 576q13 2 30.5 5t22.5 3q4 0 15 -1.5 t20 -4.5q8 -18 12.5 -37t8.5 -37q12 -57 23.5 -112.5t26.5 -112.5q7 -25 17 -60t20 -62q2 0 2.5 1.5t2.5 3.5q8 24 16 47.5t13 47.5q1 8 0 25t3 27q3 5 11.5 17t13.5 23q7 14 10 28t7 28q10 35 23 81.5t24 89.5l17.5 5t15.5 3t13 -2t16 -5z" />
<glyph unicode="o" horiz-adv-x="512" d="M541 468q0 -2 -2 -16t-4 -25q-2 -6 0.5 -14.5t0.5 -15.5q-11 -51 -26 -102t-32 -102q-2 -3 -7.5 -10.5t-7.5 -12.5q-9 -20 -18 -40.5t-23 -40.5t-34 -38t-51 -32q-5 -2 -12 -7t-12 -7q-6 -2 -19.5 -4.5t-24.5 -5.5q-26 -6 -40 -6h-31q-20 0 -36.5 0.5t-33 4.5t-34 13 t-37.5 26q-5 4 -7 9.5t-4 10.5q-5 10 -11.5 25.5t-6.5 18.5v43q0 24 5.5 56t14 66t18.5 68t20 64q1 4 8 18t17 31.5t20.5 35.5t19.5 31q4 6 11.5 14t16.5 16.5t18 16t14 12.5t19.5 9.5t25.5 9.5q29 11 61 16q4 0 9.5 1t10.5 1q4 0 23.5 -0.5t66.5 -1.5q33 0 55 -15t35 -36 t18.5 -44t5.5 -41zM443 473q0 16 -1 31t-9.5 26.5t-27.5 18.5t-55 7t-61.5 -10.5t-51.5 -39.5q-22 -24 -32 -50t-15 -51q-2 -6 -7.5 -12.5t-7.5 -12.5q-11 -37 -22.5 -74t-16.5 -74q-2 -15 -3.5 -30t-3.5 -29q-1 -7 -2 -15t-1 -10v-39v-8t1 -13.5t3 -15t6 -12.5 q11 -14 30.5 -17l32.5 -5l27 1q12 1 23.5 2.5t19.5 3.5q23 4 38.5 16.5t26 27.5t17 30.5t11.5 26.5l10 22t7 20q7 25 16 57t17.5 62t14.5 53.5t8 31.5q2 10 3.5 23t2.5 25.5t1.5 21.5t0.5 11z" />
<glyph unicode="p" horiz-adv-x="478" d="M513 498q0 -2 -1 -8t-2.5 -14t-3.5 -17t-4 -16q-5 -18 -12.5 -42t-22.5 -47.5t-40 -42t-64 -26.5q-8 -2 -19 -4.5t-22 -4.5q-28 -3 -63 -4.5t-64 -6.5q-13 -2 -16 -8q-2 -7 -6.5 -24t-7.5 -28q-6 -20 -12 -44.5t-13 -50.5q-8 -25 -16 -54t-16 -56q-8 -7 -17.5 -7h-18.5 h-15t-17 2q-3 1 -7 3.5t-8 2.5l161 580q13 0 30.5 0.5t34.5 1t29.5 1t14.5 0.5q4 0 15 1t16 1q2 0 14 0.5t26 1t26 1t14 0.5q4 0 8.5 -1t8.5 -2q25 -2 42.5 -12t28 -23.5t15 -28t4.5 -24.5zM412 448q0 4 -1.5 20t-2.5 26q-1 18 -10.5 29t-23.5 17t-32.5 7.5t-37.5 1.5 q-3 0 -10 0.5t-13.5 -0.5t-12.5 -3t-7 -7q-5 -18 -11 -38.5t-11 -40t-10 -37.5t-9 -31q-2 -5 -4 -13.5t-3.5 -17t-3 -15.5t-1.5 -8q0 -14 10 -16.5t28 -2.5q25 0 53 5t42 11q11 4 22 16t20.5 26t16 26t8.5 17q4 6 4 16v12z" />
<glyph unicode="q" horiz-adv-x="506" d="M538 473q0 -2 -1 -11t-2 -22t-2.5 -26.5t-2.5 -23.5q-1 -5 -3.5 -10.5t-3.5 -11.5q-1 -1 -3.5 -3t-2.5 -5l-4 -34t-7 -34q-4 -14 -9.5 -30t-9.5 -30q-3 -8 -6.5 -19t-6.5 -20q-2 -5 -4 -12t-5 -13q-5 -11 -14 -26.5t-17 -30.5q-5 -8 -12.5 -16.5t-14 -17.5t-11.5 -17.5 t-5 -14.5q0 -8 5.5 -17t12.5 -17t12.5 -14t5.5 -9t-6.5 -10.5t-12.5 -11.5q-6 -2 -17 -2q-19 0 -24 6t-8 13.5t-9.5 13.5t-28.5 6q-25 0 -47 -6t-52 -8l-55 -1q-5 1 -12 1.5t-12 0.5q-33 1 -55 15.5t-35 35t-18.5 42.5t-5.5 38q0 21 1.5 45t3.5 44q0 5 4 18.5t9 30t10 34 t7 29.5q10 51 33.5 106t61.5 99q3 4 11.5 11t19 14.5t22 15.5t21.5 14q5 3 14 4t15 4q16 6 26 8.5t17.5 3.5t14 1t14.5 1h14.5h17.5h16h9q5 0 18.5 -0.5t24.5 -3.5q9 -2 22 -6.5t24 -9.5q13 -8 23.5 -18.5t17 -22.5t10.5 -23.5t5 -20.5q1 -6 1.5 -15t0.5 -11zM442 468 q0 6 -1 17.5t-4 23.5t-9 22.5t-16 13.5q-14 5 -22 7t-14 2.5t-11.5 0t-13.5 -0.5q-34 0 -56.5 -5t-39 -17t-29 -32t-25.5 -51q-3 -8 -5 -15t-5 -15q-1 -2 -4 -6t-4 -6q-9 -36 -19.5 -68.5t-19 -64t-14 -64.5t-5.5 -72q0 -19 1.5 -41.5t8.5 -36.5t24.5 -17.5t26.5 -3.5h43 q7 0 16 1t17.5 4t14.5 8t6 13q0 5 -2 9q-4 7 -10 16t-12 17.5t-10 14.5t-4 8q0 5 10.5 11.5t18.5 6.5q7 0 17.5 -5t26.5 -17h10q17 23 35.5 44.5t26.5 44.5q12 29 19 52t11 42.5t6.5 38t6.5 39.5q1 9 3 22t3 26t2 22t1 11z" />
<glyph unicode="r" horiz-adv-x="470" d="M503 497q0 -3 -3.5 -15.5t-5.5 -21.5q-4 -21 -11 -42t-20 -41.5t-34 -39.5t-54 -35q-6 -3 -16 -6.5t-19 -7t-15 -7.5t-5 -9l75 -266q-5 -5 -21 -10t-24 -5q-4 0 -18 2.5t-25 6.5q-11 36 -22 73l-22 74q-5 17 -9.5 39t-10.5 35q-2 3 -6 5.5t-7 4.5q-1 1 -1 4t-1 5 q-2 5 -9 13t-17 8q-11 0 -18 -5q-19 -65 -37 -129.5t-36 -130.5h-12t-15 -1q-5 0 -11 -2t-11 -2t-15 2.5t-19 4.5q7 29 16 60t16 57q10 38 26 93t33.5 117.5t35 127.5t32.5 122q1 7 19 10.5t41 5t45.5 2t33.5 0.5h11t20.5 -0.5t24 -1.5t22.5 -2q6 -1 16 -5.5t18 -8.5 q8 -5 20 -9t17 -10q13 -15 20.5 -30t7.5 -29zM409 453q0 4 0.5 12.5t-2.5 29.5q-5 32 -28 41.5t-69 9.5q-5 0 -16 0.5t-18 -1.5q-5 -1 -9.5 -4t-5.5 -6q-11 -35 -21 -74.5t-20 -71.5q-2 -7 -4 -16t-4 -17t-3 -14.5t-1 -7.5q0 -17 11 -18.5t29 -1.5h13.5t14.5 1q13 2 31 5.5 t23 7.5q35 29 57 61.5t22 63.5z" />
<glyph unicode="s" horiz-adv-x="475" d="M472 568q0 -5 -4 -8.5t-10 -6t-12.5 -3.5t-10.5 -1q-2 0 -12.5 1t-23 1.5t-23 1.5t-12.5 1q-39 0 -67 -11t-47 -28.5t-28 -38t-9 -39.5t10 -39.5t33 -43.5q7 -8 19 -15t20 -15q15 -14 29 -29t28 -29q7 -8 18.5 -16.5t13.5 -14.5q7 -15 9 -30.5t2 -30.5q0 -44 -32 -90.5 t-110 -80.5q-2 -1 -10.5 -3t-20 -4.5t-23 -4.5t-19.5 -3q-7 -1 -20.5 -0.5t-18.5 0.5q-4 0 -18 -1t-22 1q-15 2 -34.5 7.5t-32.5 10.5q-3 2 -6 6.5t-3 7.5q0 7 8.5 19t19.5 12q4 0 8 -1t9 -1h12q20 -4 28 -6t12.5 -3t10 -1h20.5q12 0 26.5 -0.5t38.5 7.5q15 5 28.5 15 t24.5 22t18.5 24t10.5 20q3 7 3.5 18.5t0.5 14.5q0 13 -1 23.5t-5 20t-12 19.5t-21 23q-4 4 -13.5 10.5t-20.5 14.5t-21.5 16t-17.5 14q-32 28 -51.5 58t-19.5 59q0 17 6.5 38.5t20 43t33.5 41.5t47 33q47 23 84.5 27.5t78.5 4.5h17t22 -1q6 0 13.5 -4t14 -10t10.5 -12.5 t4 -10.5z" />
<glyph unicode="t" horiz-adv-x="410" d="M471 577q-2 -8 -5 -17.5t-5 -18.5l-125 2q-5 0 -18.5 -8.5t-16.5 -16.5q-28 -87 -50.5 -175t-46.5 -176q-2 -9 -6 -21t-6 -23q-7 -27 -14 -60t-21 -63q-1 -2 -5.5 -3.5t-10.5 -3t-11.5 -2t-7.5 -0.5q-3 0 -13 2.5t-19 3.5q-1 0 -2 1q-1 0 -1 2l144 524q2 2 -1 7t-12 10 h-126q2 4 0 8.5t-2 7.5q0 2 4.5 11t12.5 12q5 2 16 3t16 1h300q5 0 15 -2t17 -5z" />
<glyph unicode="u" horiz-adv-x="543" d="M548 589q-31 -108 -60 -215t-58 -216q-2 -6 0 -15.5t0 -17.5q-3 -12 -13.5 -36t-29.5 -44q-17 -17 -41 -27.5t-48 -15.5q-8 -2 -17.5 -5t-18.5 -4q-11 -1 -25 -2t-27 -1.5t-23 -1t-12 -0.5q-3 0 -15 -1t-21 1q-5 1 -15 4t-19 5q-2 1 -7.5 2.5t-8.5 2.5q-15 4 -25.5 14.5 t-17.5 23t-10 25t-3 19.5q0 1 5.5 23t14.5 58.5t22 84t28 100.5q6 22 13.5 52t16 62t18 64t19.5 58q2 4 12 7.5t17 5.5h11q8 0 13.5 -1.5t22.5 -10.5q-5 -20 -16 -61.5t-24.5 -93t-28 -106.5t-26.5 -102t-19.5 -81t-7.5 -42q0 -39 23.5 -48.5t68.5 -9.5q29 0 49.5 2 t35.5 10.5t26 25t22 46.5q3 10 11 37.5t18.5 66t23 85t26 94.5t26 94.5t23.5 84.5q10 1 24 3t19 2q4 0 12.5 -1.5t15.5 -3.5z" />
<glyph unicode="v" horiz-adv-x="477" d="M525 577q-17 -28 -37 -64t-41 -73q-14 -26 -32.5 -59t-38 -67.5t-39 -68.5t-36.5 -62q-23 -40 -49 -84.5t-52 -92.5q-5 -2 -16.5 -3.5t-24 -3t-22.5 -2.5t-12 -1q-4 0 0.5 3t-2.5 5q-2 11 -3 23t-3 23l-2 525q11 3 25 7t20 4q5 0 16.5 -3t21.5 -6l-2 -194l-9 -159 q0 -2 1.5 -11t4 -21.5t4.5 -26.5t3 -24q26 16 40 38.5t22 38.5q8 15 17 36.5t19 40.5q12 25 29 55q8 14 15.5 29t17.5 33q20 36 43.5 78.5t43.5 83.5q4 1 11 3.5t14 4t13 3t9 1.5q4 0 13.5 -3.5t17.5 -5.5z" />
<glyph unicode="w" horiz-adv-x="713" d="M770 572q-15 -26 -28.5 -53t-27.5 -53q-48 -90 -103.5 -193t-110.5 -202q-9 -16 -19 -37.5t-22 -34.5q-1 -1 -6.5 -2.5t-12 -3t-12.5 -2.5t-8 -1q-5 0 -15 3t-19 6l4 171l16 168l-3 86l-5 3h-8q-4 -5 -6.5 -9.5t-6.5 -9.5q-5 -8 -15 -18.5t-17 -21.5q-10 -17 -16 -35 t-14 -35q-14 -28 -30.5 -60t-31.5 -62q-9 -17 -21 -37.5t-23 -40.5q-9 -16 -21.5 -44.5t-30.5 -51.5q-2 -2 -8.5 -4t-14 -3.5t-14 -3t-8.5 -1.5q-4 0 -15.5 3t-17.5 4l9 553q0 5 0.5 9.5t2.5 10.5q11 3 25 7t19 4q4 0 16 -3.5t21 -7.5v-72q0 -3 -1.5 -19.5t-3.5 -28.5 l-10 -295q7 8 17 18.5t19.5 21t17 21t10.5 19.5q1 4 6.5 14.5t12.5 23.5l14 26t12 23q7 12 15 28t17 33q20 38 47 89.5t54 98.5q7 3 20 6.5t18 3.5q4 0 14.5 -3.5t20.5 -7.5l-14 -329q0 -2 1 -11t2 -15q1 -2 2.5 -2t1.5 -3v-58l-1 -1q0 -1 4 -1q12 0 23.5 18t22.5 35 q4 5 4.5 12.5t2.5 12.5q4 9 14 29t22 45t24.5 51t23.5 47q17 35 34.5 78t51.5 92q1 1 8 3t15.5 4t16 3t9.5 1q4 0 13 -3.5t17 -5.5z" />
<glyph unicode="x" horiz-adv-x="488" d="M536 574q-57 -68 -115.5 -139.5t-109.5 -134.5q-2 -2 -1 -4.5t1 -4.5l74 -288q-11 -2 -19.5 -7t-22.5 -5q-4 0 -14 1t-15 1l-10 2.5t-8 3.5q-5 10 -10 28t-9.5 37.5t-8 37t-4.5 27.5q-1 7 -1.5 18.5t-1.5 19.5q-1 4 0 10.5t-2 11.5q-7 11 -24 11q-7 0 -11 -1.5t-7.5 -4.5 t-8 -8.5t-12.5 -13.5q-5 -5 -9.5 -16t-11.5 -19q-12 -17 -22.5 -34.5t-22.5 -35.5t-27.5 -35.5t-37.5 -32.5q-2 -2 -9.5 -3.5t-16 -2.5t-16 -2t-9.5 -1q-4 0 -13 3t-17 6q60 72 118.5 142.5t116.5 142.5q2 2 1 4.5t-1 4.5l-67 276q18 7 25 10.5t18 3.5q17 0 27 -4t13 -8 q5 -5 8.5 -12.5t3.5 -12.5q1 -20 4.5 -36t10.5 -36q6 -20 6 -41t2 -41q1 -5 9.5 -10.5t15.5 -5.5q9 0 14 10t12 18q6 7 19 17.5t20 21.5q16 25 28 43t22.5 32.5t21 26.5t23.5 24q5 5 24 8.5t30 3.5q4 0 12.5 -2t14.5 -5z" />
<glyph unicode="y" horiz-adv-x="442" d="M492 574q-31 -42 -66.5 -87.5t-69.5 -90.5t-62 -86t-44 -73q-14 -29 -23 -59t-16 -60t-13 -60.5t-14 -60.5q-8 -2 -21 -4.5t-18 -2.5q-4 0 -15 2.5t-21 2.5q-4 0 -6 0.5t-4 -0.5l64 244l-84 329q1 1 7 4t13.5 5t14 4t8.5 2q5 0 20 -3t26 -5q2 -14 5.5 -31t7.5 -34.5 t7.5 -34t6.5 -29.5q2 -15 5 -32t5 -37q2 -15 1.5 -29.5t10.5 -29.5q8 5 19 13.5t20 16.5q4 3 9.5 8.5t9.5 11.5q13 19 26.5 44t29.5 52t34 54t39 51q2 3 6.5 4.5l7.5 2.5q9 2 22.5 4.5t18.5 2.5t14.5 -3t18.5 -6z" />
<glyph unicode="z" horiz-adv-x="464" d="M516 579q-36 -46 -84 -106.5t-101.5 -128t-108 -136.5t-104.5 -132q-8 -10 -8 -18t12 -19t23 -11h153q2 0 9 1t14.5 1.5t14.5 1.5t9 1q14 0 19 -3.5t5 -11.5q0 -13 -13 -18.5t-27 -5.5h-325q-5 0 -10 3t-9 4q49 64 104 135.5t109 141t103 132.5t87 111q3 4 3 11 q0 5 -0.5 7t-13.5 11h-224v1q0 1 3 3q-4 4 -8 7.5t-4 6.5q0 6 7.5 10t17 6.5t19 3t14.5 0.5h291q4 0 10.5 -3.5t12.5 -5.5z" />
<glyph unicode="&#xa9;" horiz-adv-x="423" d="M408 448q0 -3 -1.5 -17.5t-3.5 -25.5q-1 -5 1 -13.5t0 -16.5q-8 -48 -17.5 -95.5t-19.5 -95.5q-1 -8 -5.5 -15t-6.5 -15q-12 -42 -35.5 -76.5t-70.5 -63.5q-2 -2 -5.5 -6t-6.5 -5q-19 -6 -29 -9t-17.5 -4.5t-14.5 -1.5h-19q-3 0 -12 -0.5t-17 0.5q-14 2 -35.5 13.5 t-32.5 29.5q-2 4 -9 12t-14.5 17.5t-13.5 19t-7 17.5q1 15 1 23.5v12.5t-0.5 5t-0.5 2q2 14 2 28.5t2 28.5q2 17 8 42t9 48q5 37 14 76t21.5 75t29 67t37.5 51q1 1 5 2.5t8.5 3l9 3t5.5 2.5q5 5 15.5 11.5t23 12t25 9.5t23.5 4q1 0 10.5 0.5t21.5 0.5t24.5 -1t21.5 -4 q18 -5 32 -23.5t24 -41.5t15 -47t5 -40zM340 451q0 15 -2.5 33t-10.5 33.5t-23.5 26t-40.5 10.5q-10 0 -23.5 -2.5t-27 -8t-26.5 -14.5t-21 -22q-17 -25 -24.5 -53.5t-11.5 -51.5q-2 -7 -5.5 -13.5t-5.5 -11.5q-1 -5 -6.5 -34t-11.5 -66.5t-11 -74t-5 -55.5l6 -51 q0 -3 10 -15t15 -23t18.5 -15.5t23.5 -6.5l18 2q8 0 14.5 1t12.5 3q5 2 12.5 4.5t11.5 5.5q20 18 34 43.5t24.5 55.5t18 63t14.5 66q5 23 11 54t9 51q1 9 2 20t1 20.5v16.5v9zM299 407q0 -11 -1.5 -14.5t-18.5 -9.5q-7 -2 -15.5 -2t-14.5 -2q-11 -4 -23.5 -9t-21.5 -14 q-7 -7 -10 -17t-5 -21q-2 -9 -6 -22.5t-4 -18.5q0 -3 1 -14t3 -24q1 -5 4.5 -15t8.5 -18q12 -5 23.5 -2.5t18.5 -4.5q2 -4 1 -9t1 -10q1 -2 3.5 -4.5t2.5 -5.5q0 -2 -4 -7t-6 -10q-3 0 -7 -2t-7 -3q-5 -1 -11 -0.5t-9 0.5q-43 0 -58 22t-15 56q0 29 6.5 53.5t11.5 47.5 q1 3 3.5 9t4.5 11q6 17 16.5 36.5t24.5 30.5q17 11 33.5 18.5t33.5 8.5q7 -2 13 -2.5t13 -1.5q4 -2 3.5 -6.5t0.5 -8.5q5 -4 5.5 -7.5t0.5 -7.5z" />
<glyph unicode="&#xae;" horiz-adv-x="405" d="M387 430q0 -3 -1.5 -17.5t-3.5 -25.5q-1 -5 1 -13.5t0 -16.5q-8 -49 -18 -98.5t-20 -99.5q-1 -4 -5 -10.5t-6 -12.5q-7 -23 -15 -39.5t-20 -30t-28 -25.5t-39 -27q-4 -2 -7 -6.5t-8 -6.5q-15 -5 -24.5 -7.5t-18 -3.5t-16.5 -1.5t-18 -0.5q-3 0 -12 -0.5t-17 0.5 q-14 2 -35.5 13.5t-32.5 29.5q-2 4 -7.5 14.5t-11.5 23.5t-10.5 25.5t-4.5 19.5v23.5v13v5.5v2q2 14 2 28.5t2 28.5q2 15 6 38.5t8.5 50.5t10 54t11.5 50q2 8 7 22t10 26q11 28 30 48.5t49 52.5q2 2 2.5 5t2.5 5q5 5 15.5 11.5t23 12t25 9.5t23.5 4q1 0 10.5 0.5t21.5 0.5 t24.5 -1t21.5 -4q18 -5 31.5 -26t22.5 -47.5t13.5 -53.5t4.5 -43zM319 433q0 15 -2 36t-9 39.5t-22 32t-40 13.5q-22 0 -39.5 -9t-35.5 -36q-17 -25 -31 -45.5t-19 -43.5q-1 -7 -5 -13.5t-5 -11.5t-6.5 -34t-11.5 -66.5t-11 -74.5t-5 -56v-41q0 -2 2.5 -10t5.5 -18.5 t6.5 -21t6.5 -15.5q5 -11 18.5 -15.5t23.5 -6.5l18 2q8 0 14.5 1t12.5 3q5 2 13 4.5t11 5.5q20 18 33.5 41t23 49.5t16.5 56.5t14 63q5 23 10 49t7 42q1 10 2.5 23t2 25t1 21t0.5 11zM294 407q0 -3 -1.5 -10t-3.5 -12q-3 -16 -8.5 -32.5t-22.5 -31.5q-8 -8 -14.5 -11 t-12 -5.5t-9 -4.5t-5.5 -7l32 -135q-4 -1 -9.5 -3t-8.5 -2q-7 0 -17 4q-3 10 -7 19t-9 20q-5 12 -7.5 25t-6.5 26q-2 8 -6.5 17t-7.5 17q-2 -11 -3 -23.5t-4 -22.5q-3 -12 -9 -27t-10 -23q-1 -2 0 -6t-1 -8t-6 -10.5t-7 -6.5t-14 0.5t-19 0.5l39 172q8 30 15 60l14 60 q11 6 27.5 6.5t28.5 0.5q3 0 14.5 -0.5t17.5 -1.5q2 0 6 -2.5t8 -4.5l6 -3t6 -4q15 -17 15 -31zM247 386q0 2 -0.5 7.5t-2 11t-4.5 9.5t-9 4h-30q-4 -22 -7 -43.5t-7 -41.5h21q3 0 8.5 3t10.5 7t9 7.5t4 4.5q4 8 5.5 11.5t2 6t0 5t-0.5 8.5z" />
<glyph unicode="&#x25fc;" horiz-adv-x="585" d="M0 585h585v-585h-585v585z" />
</font>
</defs>
</svg>
