<?xml version="1.0" encoding="utf-8"?>
<!-- Generator: Adobe Illustrator 16.0.0, SVG Export Plug-In . SVG Version: 6.00 Build 0)  -->
<!DOCTYPE svg PUBLIC "-//W3C//DTD SVG 1.1//EN" "http://www.w3.org/Graphics/SVG/1.1/DTD/svg11.dtd">
<svg version="1.1" id="Layer_1" xmlns="http://www.w3.org/2000/svg" xmlns:xlink="http://www.w3.org/1999/xlink" x="0px" y="0px"
	 width="40px" height="40px" viewBox="0 0 40 40" enable-background="new 0 0 40 40" xml:space="preserve">
<g>
	<path fill="#4A4A4A" d="M36.016,40H3.984C1.787,40,0,38.214,0,36.016V3.984C0,1.787,1.787,0,3.984,0h32.031
		C38.214,0,40,1.787,40,3.984v32.031C40,38.214,38.214,40,36.016,40z M3.984,1.793c-1.207,0-2.19,0.982-2.19,2.191v32.031
		c0,1.207,0.983,2.19,2.19,2.19h32.031c1.209,0,2.191-0.983,2.191-2.19V3.984c0-1.207-0.982-2.19-2.191-2.19L3.984,1.793
		L3.984,1.793z"/>
</g>
<g>
	<rect x="6.119" y="11.104" fill="#4A4A4A" width="28.045" height="1.806"/>
</g>
<g>
	<rect x="6.119" y="18.835" fill="#4A4A4A" width="28.045" height="1.806"/>
</g>
<g>
	<rect x="6.119" y="26.824" fill="#4A4A4A" width="28.045" height="1.803"/>
</g>
</svg>
